<svg width="221" height="73" viewBox="0 0 221 73" fill="none" xmlns="http://www.w3.org/2000/svg">
<path fill-rule="evenodd" clip-rule="evenodd" d="M114.825 18.8188C115.13 18.7172 114.825 18.1076 114.52 17.9044C114.112 17.498 113.705 17.8028 113.095 17.3964C112.382 16.6852 110.347 16.0756 109.634 14.7548C109.227 13.942 110.449 12.7228 110.143 11.7068C109.838 10.9956 108.617 10.6908 108.413 9.67484C108.413 9.16685 108.108 8.25245 108.311 7.84606C108.515 7.43966 109.024 7.64286 109.125 7.23646C109.329 6.32207 108.718 5.50927 108.922 4.59488C108.922 4.49328 109.024 4.29008 109.125 4.18848C107.904 3.57889 105.767 3.17249 104.647 3.37569C103.222 3.57889 104.24 2.4613 103.222 2.4613C101.797 2.56289 100.983 1.1405 99.7619 1.3437C99.3548 1.4453 98.0317 1.8517 97.8282 1.9533C96.4033 2.86769 97.9299 6.83006 96.9122 7.43966C94.266 8.65885 93.1464 14.3484 90.8055 14.5516C89.3807 14.6532 89.2789 15.974 87.4469 15.974C85.8185 15.974 86.022 15.0596 85.106 15.1612C84.3936 15.2628 84.8007 14.5516 83.1723 14.6532C81.6456 14.6532 80.5261 16.5836 78.9994 17.0916C78.4905 17.2948 78.1852 16.99 77.6763 17.0916C77.1674 17.2948 76.8621 16.6852 75.7425 16.5836C75.0301 16.5836 74.8266 17.1932 73.9106 17.0916C73.1981 16.99 71.7732 15.466 71.3661 15.2628C70.3484 15.0596 70.2466 15.2628 69.9413 14.3484C69.9413 14.2468 69.0253 12.926 68.9235 12.418C67.9057 12.3164 68.5164 13.434 66.5826 13.942C65.6666 14.1452 66.1755 15.466 65.972 16.2788C65.6666 17.498 64.8524 18.8188 64.9542 20.038C65.056 20.7492 66.0737 20.8508 66.3791 21.4604C66.6844 22.2731 66.4808 22.9843 66.7862 23.6955C67.1933 24.6099 66.6844 25.0163 66.7862 25.6259C66.8879 25.9307 67.1933 26.0323 67.3968 26.3371C67.6004 26.8451 67.0915 27.0483 68.0075 27.9627C68.2111 28.1659 68.9235 27.7595 69.2288 27.9627C69.6359 28.2675 69.7377 28.6739 70.1448 29.0803C70.6537 29.4867 69.7377 29.7915 69.9413 30.4011C70.043 30.9091 70.8573 31.2139 71.0608 31.6203C71.4679 32.2299 71.2644 34.1603 71.9768 35.3795C72.1804 35.7858 72.791 35.3795 73.1981 35.3795C73.9106 35.5826 73.6052 36.2938 75.539 36.1922C76.2514 36.1922 76.455 35.2779 77.1674 35.2779C78.0834 35.2779 78.9994 35.6842 79.6101 36.2938C80.0172 36.5986 79.3047 37.4114 79.8136 37.7162C80.6278 38.2242 80.9332 36.9034 81.6456 36.8018C82.1545 36.8018 82.7652 37.6146 83.274 37.6146C84.19 37.6146 85.106 36.2938 86.022 36.3954C87.0398 36.497 88.0576 37.6146 89.1771 37.8178C90.3984 38.021 91.1109 36.9034 92.1287 37.6146C93.6553 38.6306 91.6198 40.8658 92.434 41.7802C92.6375 41.9834 94.8766 40.2562 95.8944 40.3578C96.6068 40.4594 97.2175 39.2402 97.6246 39.2402C98.9477 39.2402 98.9477 38.529 99.4566 38.7322C100.067 38.9354 99.7619 40.2562 100.474 40.1546C101.289 40.053 101.696 39.037 101.797 38.2242C101.797 37.513 100.78 37.3098 100.678 36.5986C100.576 36.1922 101.289 35.7858 101.39 35.3795C101.594 34.8715 101.492 34.2619 101.797 33.8555C102.103 33.4491 102.917 34.0587 102.917 33.5507C103.019 33.0427 101.492 31.3155 101.696 30.4011C102.103 28.8771 102.917 28.0643 104.342 27.0483C104.953 26.7435 105.767 26.5403 106.072 26.1339C106.785 25.0163 106.785 23.6955 107.293 22.4763C107.599 21.7652 107.395 20.546 108.209 20.2412C110.245 19.2252 112.586 19.6316 114.825 18.8188ZM7.14482 1.4453C7.65371 1.5469 8.36615 1.9533 8.87503 2.0549C9.48569 2.0549 10.0964 1.8517 10.6052 1.7501C11.1141 1.7501 11.5212 1.9533 12.0301 2.0549C13.0479 2.3597 14.371 3.07089 14.7781 3.88368C15.0834 4.69648 16.5083 5.00128 16.7119 5.91567C16.9154 6.93166 17.5261 6.83006 18.2385 7.43966C18.6456 7.74446 18.951 8.25245 19.3581 8.55725C20.3758 9.26845 21.5972 9.57324 22.6149 10.0812C22.9203 10.2844 23.2256 10.7924 23.4291 10.9956C23.938 11.7068 24.854 12.418 25.8718 12.8244C26.2789 13.0276 26.3807 14.5516 26.7878 14.8564C27.9073 15.3644 28.9251 13.8404 29.5358 14.3484C29.8411 14.5516 30.35 15.0596 30.8589 15.1612C31.0624 15.1612 31.5713 14.7548 31.6731 14.958C31.9784 15.466 33.3015 15.8724 32.6909 16.3804C32.3855 16.5836 32.182 17.1932 32.2837 17.2948C32.5891 17.498 33.4033 17.2948 33.8104 17.2948C34.4211 17.1932 35.7442 17.2948 36.2531 18.1076C36.6602 18.9204 37.169 17.9044 37.5762 18.4124C38.4921 19.53 37.7797 20.546 38.5939 20.7492C39.6117 21.054 38.4921 19.53 39.3064 19.2252C39.6117 19.1236 39.7135 19.53 40.2224 20.3428C40.7312 21.1556 39.917 21.4604 40.0188 22.1715C40.1206 22.5779 41.0366 23.3907 41.2401 23.5939C42.0543 24.5083 41.0366 24.5083 40.6295 25.3211C40.4259 26.0323 39.6117 26.4387 39.8153 26.8451C40.0188 27.3531 40.1206 27.8611 40.9348 27.9627C42.5632 28.0643 42.665 26.9467 43.6828 27.9627C44.5988 28.8771 44.1917 29.3851 44.3952 29.5883C45.1077 30.5027 44.2934 31.2139 45.3112 31.9251C46.1254 32.5347 46.329 33.5507 47.245 33.4491C47.5503 33.4491 47.6521 33.2459 48.4663 33.5507C49.3823 33.9571 49.5858 34.1603 49.8912 34.7699C50.0947 35.2779 50.9089 35.7858 51.1125 36.0906C52.3338 37.9194 50.7054 37.7162 50.7054 38.8338C50.7054 39.1386 51.7232 39.9514 51.7232 40.2562C51.6214 40.9674 51.0107 41.1706 50.8072 41.8818C50.6036 42.593 51.7232 42.9994 51.0107 44.5234C50.8072 44.9298 51.0107 45.4378 50.6036 46.149C50.2983 46.7586 50.7054 47.7746 50.4001 48.0794C49.993 48.4858 48.8734 46.8602 48.161 47.5714C47.3468 48.2826 46.7361 46.5554 45.6165 47.165C45.413 47.2666 45.1077 47.8762 45.3112 48.181C45.8201 48.8922 46.5325 47.9778 46.7361 49.0953C46.8379 49.8065 45.6165 49.0953 45.0059 48.181C44.7006 47.673 43.9881 47.3682 43.6828 46.8602C43.1739 46.149 42.5632 46.0474 41.8508 45.641C40.7312 45.0314 40.4259 44.4218 39.4081 43.8122C38.3904 43.101 37.0673 42.3898 36.0495 41.577C34.6246 40.561 34.8282 39.2402 33.5051 38.6306C30.8589 37.6146 31.1642 36.3954 30.2482 35.7858C28.7216 34.8715 28.518 32.9411 27.5002 31.7219C26.7878 30.9091 26.8896 29.9947 26.0753 29.3851C25.2611 28.6739 25.4647 26.4387 24.9558 26.0323C24.1416 25.4227 22.8185 24.9147 22.4114 24.1019C21.8007 22.9843 21.1901 23.1875 20.7829 22.6795C19.9687 21.6636 19.2563 20.1396 19.1545 19.4284C18.7474 17.3964 17.119 17.8028 17.2207 16.7868C17.3225 15.7708 15.3888 15.7708 14.4728 14.958C13.3532 14.0436 13.6586 13.0276 13.1497 12.2148C12.6408 11.6052 11.623 11.402 11.2159 10.894C10.6052 10.386 9.99458 9.47164 9.07859 9.47164C8.26437 9.37004 8.5697 8.86205 7.65371 8.25245C7.04305 7.84606 6.02527 7.13486 5.51639 6.62686C4.90573 5.91567 4.49862 5.10288 3.78618 4.69648C3.48085 4.49328 3.58263 3.88368 3.27729 3.68049C2.66663 3.17249 0.834646 2.96929 0.631091 2.2581C0.529314 1.6485 -0.0813478 1.5469 0.427537 1.3437C1.13998 0.937306 1.95419 0.632509 2.66663 0.734108C3.48085 0.835707 4.19329 1.3437 5.0075 1.5469C5.82172 1.6485 6.22883 1.4453 7.14482 1.4453ZM2.87019 8.04925C4.39684 7.94765 4.29506 8.76045 5.0075 9.26845C5.41461 9.47164 5.61817 10.1828 6.12705 10.1828C6.63594 10.2844 7.14482 10.894 6.94127 11.1988C6.33061 12.1132 4.80395 10.9956 3.88796 10.2844C3.48085 10.0812 2.87019 9.77644 2.56486 9.37004C2.15775 8.86205 2.25952 8.04925 2.87019 8.04925ZM8.77325 12.3164C8.67148 12.0116 8.87503 11.6052 9.18036 11.402C9.48569 11.0972 9.68925 10.894 9.8928 10.894C10.6052 10.6908 11.623 10.9956 11.7248 11.7068C11.8266 12.3164 11.0124 12.418 10.0964 12.8244C9.07859 13.3324 8.77325 12.8244 8.77325 12.3164ZM8.87503 14.7548C9.58747 14.5516 10.8088 14.5516 11.623 15.0596C12.1319 15.3644 12.3355 15.7708 12.539 16.3804C12.7426 16.8884 13.1497 17.3964 13.1497 17.8028C13.2514 18.7172 12.2337 19.9364 11.7248 19.7332C10.5035 19.2252 10.4017 17.9044 9.79103 16.7868C9.38392 16.2788 8.26437 14.8564 8.87503 14.7548ZM16.1012 20.546C16.5083 20.546 17.0172 20.7492 17.119 21.1556C17.2207 21.4604 16.203 21.8668 16.203 22.1715C16.3048 23.3907 15.8976 24.0003 15.0834 24.3051C13.8621 24.9147 14.5745 23.6955 14.7781 23.4923C15.7959 22.6795 14.0657 22.07 14.6763 21.7652C15.1852 21.4604 15.5923 20.6476 16.1012 20.546ZM16.7119 25.8291C17.9332 25.0163 17.7296 26.6419 18.035 27.0483C18.3403 27.4547 19.0527 27.8611 19.2563 28.3691C19.4598 28.8771 18.8492 29.5883 19.0527 29.8931C19.6634 30.5027 18.6456 30.6043 18.4421 30.4011C17.7296 29.5883 16.7119 29.1819 16.8136 28.1659C16.9154 27.6579 15.8976 27.4547 15.8976 26.4387C15.8976 26.1339 16.5083 26.0323 16.7119 25.8291ZM22.106 32.1283C21.5972 31.7219 21.8007 31.3155 21.1901 31.1123C20.7829 31.0107 20.5794 31.4171 20.6812 31.8235C20.8847 32.1283 21.2918 32.2299 21.6989 32.3315C21.8007 32.4331 22.2078 32.2299 22.106 32.1283ZM23.2256 33.4491C23.938 34.6683 25.3629 34.7699 24.9558 36.3954C24.9558 36.497 24.1416 35.7858 23.3274 35.2779C22.7167 34.9731 22.4114 34.2619 22.6149 33.6523C22.7167 33.1443 23.022 33.0427 23.2256 33.4491ZM33.098 44.8282C34.014 45.3362 34.7264 44.8282 34.8282 46.0474C34.93 47.4698 34.3193 46.7586 33.9122 46.657C32.6909 46.2506 32.8944 46.0474 32.4873 45.641C32.0802 45.0314 32.7926 44.7266 33.098 44.8282ZM53.2498 9.67484C53.3516 9.47164 54.064 9.57324 54.1658 9.87804C54.4711 10.1828 54.1658 10.894 54.2676 11.3004C54.2676 11.6052 54.8783 11.6052 54.7765 11.91C54.6747 12.2148 54.5729 12.6212 54.2676 12.6212C53.8605 12.7228 54.1658 11.91 53.5552 12.0116C53.148 12.1132 53.3516 13.1292 53.148 12.926C52.6392 12.418 51.3161 11.402 51.9267 10.9956C52.4356 10.6908 53.2498 11.402 53.3516 11.0972C53.6569 10.0812 53.148 9.87804 53.2498 9.67484ZM45.6165 18.4124C46.1254 17.498 45.5148 17.7012 45.5148 17.2948C45.413 16.8884 46.2272 16.2788 45.2094 15.8724C44.2934 15.5676 44.497 16.8884 43.1739 16.3804C42.2579 15.974 40.6295 16.5836 40.4259 17.498C40.3241 18.3108 41.9526 18.3108 42.665 18.6156C42.9703 18.7172 43.3774 19.2252 43.6828 19.1236C43.9881 19.022 43.9881 18.4124 44.497 18.2092C44.9041 18.1076 45.5148 18.7172 45.6165 18.4124ZM45.0059 21.6636C45.7183 21.4604 45.8201 22.1715 46.2272 22.4763C46.6343 22.7811 47.3468 23.2891 46.6343 23.7971C46.329 24.0003 45.8201 23.5939 45.7183 23.7971C45.3112 24.1019 45.1077 24.9147 44.5988 24.8131C43.6828 24.7115 42.4615 24.3051 42.5632 23.3907C42.5632 22.6795 43.9881 23.1875 44.1917 22.8827C44.497 22.1715 43.4792 21.9684 43.6828 21.6636C43.9881 21.4604 44.5988 21.7652 45.0059 21.6636ZM49.6876 31.0107C50.0947 31.1123 49.993 31.8235 50.2983 32.1283C50.5018 32.4331 51.1125 32.5347 51.1125 33.0427C51.1125 33.4491 51.7232 33.7539 51.9267 34.2619C52.4356 34.8715 52.7409 36.3954 53.5552 36.1922C54.2676 36.0906 54.8783 36.7002 55.4889 36.2938C55.9978 35.7858 55.4889 35.2779 55.3871 34.6683C55.3871 34.3635 54.98 34.2619 55.0818 33.9571C55.1836 33.6523 55.7943 33.6523 55.896 33.3475C55.9978 33.0427 55.5907 32.9411 55.2854 32.8395C54.5729 32.6363 53.5552 32.8395 52.9445 32.2299C52.3338 31.5187 52.7409 30.1979 52.232 29.1819C52.0285 28.6739 51.3161 28.1659 50.4001 28.0643C49.1787 27.9627 48.5681 28.6739 47.8556 29.7915C47.5503 30.1979 46.9396 30.5027 47.3468 30.9091C47.9574 31.4171 48.9752 30.8075 49.6876 31.0107ZM59.1529 35.6842C59.3564 35.7858 59.56 36.1922 59.8653 36.1922C60.6795 36.0906 60.5778 36.9034 61.1884 36.8018C61.6973 36.8018 62.308 37.2082 62.6133 36.9034C63.1222 36.3954 62.0026 36.497 62.0026 36.0906C62.0026 35.7858 62.8169 35.6842 62.8169 35.3795C62.9186 34.4651 62.7151 34.2619 62.308 33.3475C62.2062 33.0427 61.2902 32.5347 60.9849 32.7379C60.2724 33.0427 59.8653 32.7379 59.3564 33.1443C59.0511 33.2459 59.1529 33.6523 58.8476 33.9571C58.5422 34.3635 57.9316 34.6683 57.9316 35.0747C57.9316 35.5826 58.644 35.3795 59.1529 35.6842ZM65.2595 29.8931C64.9542 29.5883 64.7506 28.9787 65.056 28.7755C65.4631 28.5723 65.5648 29.1819 66.0737 29.0803C66.3791 29.0803 66.6844 28.7755 67.0915 28.7755C67.3968 28.7755 67.9057 28.9787 67.8039 29.1819C67.6004 29.6899 67.3968 29.8931 66.8879 30.0963C66.5826 30.1979 66.2773 29.6899 65.972 29.6899C65.6666 29.6899 65.4631 30.0963 65.2595 29.8931ZM220.571 34.7699C220.775 34.9731 219.961 35.2779 219.859 35.5826C219.859 35.989 220.469 36.2938 220.469 36.7002C220.469 39.8498 219.655 40.561 219.757 45.9458C219.757 46.7586 220.164 48.181 220.164 48.9938C220.164 49.4001 219.757 49.4001 219.757 49.8065C219.757 50.3145 220.266 50.6193 220.266 51.1273C220.266 51.9401 219.859 52.9561 219.859 53.6673C219.452 57.3249 219.248 61.4905 218.638 64.4368C216.297 63.4208 216.195 62.4048 214.77 60.9825C213.854 60.1697 213.04 61.1857 210.902 60.5761C210.597 60.5761 210.394 60.0681 209.986 60.0681C209.579 60.1697 208.969 60.4745 208.867 60.8809C208.562 61.7953 207.544 62.3032 206.831 62.3032C204.999 61.3889 202.557 62.1 202.455 60.4745C202.251 58.4425 202.964 58.8489 203.676 58.4425C203.982 58.3409 204.083 58.0361 204.592 57.7313C204.796 57.5281 205.203 57.3249 205.305 57.0201C205.508 56.7153 205.305 56.3089 205.61 56.1057C206.322 55.6993 207.747 56.4105 207.442 55.5977C206.526 53.0577 206.221 50.7209 204.287 48.5874C202.862 46.8602 195.331 43.7106 192.99 43.4058C191.667 43.2026 190.649 44.117 189.02 42.4914C188.817 42.1866 188.512 41.7802 188.206 41.7802C187.494 41.6786 186.883 42.2882 186.272 41.9834C185.356 41.4754 184.44 39.2402 184.033 39.4434C183.117 39.7482 184.44 42.6946 182.507 42.8978C180.878 43.101 179.555 41.1706 179.046 39.4434C178.741 38.6306 175.993 37.8178 175.179 36.3954C174.873 35.7858 175.586 35.2779 176.298 35.0747C177.418 34.8715 178.741 35.481 179.86 35.2779C180.471 35.2779 181.896 34.3635 181.387 34.0587C180.573 33.6523 179.86 34.6683 178.944 34.4651C178.334 34.3635 177.621 34.3635 177.011 34.0587C176.502 33.7539 176.502 32.5347 175.891 32.5347C174.568 32.4331 175.179 31.1123 174.568 30.9091C172.634 30.0963 172.736 30.9091 171.718 30.2995C170.904 29.7915 170.497 29.7915 170.192 29.5883C169.174 28.5723 167.953 27.7595 167.953 27.0483C167.953 26.3371 169.072 26.8451 169.785 26.5403C170.497 26.2355 171.617 26.8451 172.227 27.1499C172.533 27.2515 172.024 26.2355 174.873 26.1339C176.196 26.0323 177.316 24.1019 178.537 24.6099C179.759 25.1179 181.591 25.6259 183.117 26.1339C184.033 26.3371 185.255 26.0323 185.865 26.6419C186.272 27.0483 187.29 27.2515 187.392 27.8611C187.392 30.5027 186.374 30.4011 186.578 31.7219C186.578 32.1283 187.392 31.8235 187.799 32.0267C188.308 32.1283 187.901 33.4491 188.512 33.5507C189.224 33.5507 188.715 34.3635 188.817 34.7699C189.02 35.481 189.529 35.7858 189.936 36.3954C190.242 37.005 189.529 37.6146 190.852 38.2242C192.481 38.9354 192.684 37.1066 193.6 36.5986C194.822 36.0906 196.654 34.6683 196.552 33.0427C194.618 32.3315 193.804 32.4331 192.99 31.6203C192.481 31.1123 191.565 31.2139 190.954 30.7059C190.649 30.4011 190.547 29.3851 191.056 29.2835C191.667 29.1819 192.481 30.7059 194.007 30.5027C195.534 30.2995 197.163 30.9091 198.689 31.0107C199.402 31.0107 199.809 31.7219 200.216 31.6203C201.641 31.2139 203.167 29.0803 203.676 29.4867C206.933 31.2139 208.663 33.0427 211.513 33.7539C213.854 34.2619 215.686 33.6523 217.722 33.8555C218.129 33.9571 218.332 34.2619 218.739 34.3635C219.35 34.5667 220.164 34.3635 220.571 34.7699ZM194.313 28.1659C194.822 28.2675 195.229 29.0803 195.839 29.1819C196.552 29.1819 197.366 29.0803 197.57 28.4707C197.671 27.7595 196.755 27.5563 196.247 27.1499C195.534 26.5403 194.72 26.4387 194.109 25.9307C193.804 25.6259 193.499 26.0323 193.091 26.1339C192.888 26.2355 192.175 25.9307 191.972 26.1339C191.768 26.4387 191.972 26.9467 192.074 27.2515C192.175 27.6579 192.481 27.8611 192.786 27.9627C193.397 28.1659 193.702 27.9627 194.313 28.1659ZM190.852 28.7755C190.547 28.0643 190.038 27.6579 189.326 27.1499C188.817 26.8451 189.122 28.1659 189.326 28.6739C189.326 28.8771 189.835 29.0803 190.038 29.0803C190.343 29.0803 190.852 29.0803 190.852 28.7755ZM171.006 25.2195C171.82 25.1179 172.838 25.1179 173.143 24.4067C173.347 23.7971 172.227 23.0859 171.515 23.0859C170.09 23.0859 169.683 22.4763 168.461 22.4763C168.054 22.5779 168.258 22.9843 167.953 23.0859C167.342 23.3907 165.917 22.7811 166.019 23.2891C166.222 24.3051 167.444 24.6099 168.36 25.1179C168.767 25.4227 169.276 25.0163 169.683 25.0163C170.192 25.0163 170.497 25.3211 171.006 25.2195ZM168.563 31.9251C168.869 31.6203 167.749 31.0107 167.342 31.0107C166.426 30.9091 165.51 30.7059 164.899 31.4171C164.492 31.8235 166.019 31.9251 166.528 32.2299C167.342 32.8395 168.054 32.4331 168.563 31.9251ZM190.649 48.8922C190.242 49.1969 190.751 50.1113 190.954 50.2129C191.259 50.5177 192.074 50.0097 192.074 49.6033C192.175 48.7906 190.954 48.7906 190.649 48.8922ZM188.41 46.9618C188.919 46.9618 188.308 49.1969 189.122 49.7049C189.529 50.0097 189.224 53.9721 187.799 55.1913C187.494 55.4961 187.29 54.9881 186.68 54.8865C185.865 54.6833 185.255 53.4641 185.458 52.9561C185.764 52.0417 186.374 50.2129 186.374 48.181C186.374 47.3682 187.901 46.9618 188.41 46.9618ZM181.794 46.0474C182.405 46.657 182.507 48.3842 181.896 49.5017C181.591 50.3145 179.86 50.6193 178.944 50.4161C178.537 50.3145 178.13 51.5337 177.621 51.0257C177.214 50.6193 177.825 49.7049 178.334 49.2985C178.843 48.8922 178.334 48.4858 178.537 48.181C178.944 47.7746 179.555 48.181 179.962 47.7746C180.471 47.3682 181.285 45.5394 181.794 46.0474ZM176.298 47.9778C176.502 48.4858 177.418 48.2826 177.52 48.8922C177.621 49.2985 176.807 50.2129 176.4 50.0097C175.789 49.5017 175.382 49.4001 175.077 48.8922C174.975 48.5874 175.28 48.0794 175.382 47.7746C175.484 47.3682 174.873 47.0634 175.077 46.657C175.179 46.4538 175.789 46.149 176.095 46.2506C176.807 46.5554 175.993 47.2666 176.298 47.9778ZM174.67 54.4801C174.568 54.7849 175.179 54.4801 175.484 54.4801C175.789 54.3785 176.502 53.2609 177.112 54.3785C177.418 54.8865 176.502 56.0041 175.789 56.1057C174.975 56.3089 174.975 57.0201 174.568 57.7313C174.059 58.7473 173.245 59.9665 172.329 60.5761C171.515 61.0841 169.785 60.9825 169.581 60.0681C169.276 59.0521 171.006 58.9505 171.108 57.9345C171.209 57.4265 170.497 57.6297 170.293 57.1217C170.192 56.8169 170.599 56.2073 170.904 56.0041C171.718 55.5977 172.533 56.1057 173.041 55.3945C173.652 54.4801 173.347 53.8705 173.55 52.9561C173.652 52.6513 173.754 51.8385 174.059 51.9401C175.382 52.7529 174.67 53.4641 174.67 54.4801ZM173.245 44.4218C173.652 44.117 174.161 44.0154 174.161 43.5074C174.059 42.9994 173.449 42.1866 173.143 42.4914C172.736 42.7962 172.838 43.4058 172.838 44.0154C172.838 44.117 173.143 44.5234 173.245 44.4218ZM171.922 42.6946C172.431 42.593 172.838 42.1866 172.634 41.577C172.533 41.2722 171.718 40.9674 171.311 40.9674C171.108 41.069 170.802 41.2722 170.904 41.4754C171.006 41.9834 171.413 42.7962 171.922 42.6946ZM163.78 58.2393C163.576 58.6457 164.289 59.1537 164.797 59.2553C165.408 59.3569 165.815 59.7633 166.426 58.5441C166.629 58.2393 165.815 57.9345 165.408 57.8329C164.899 57.7313 163.983 57.9345 163.78 58.2393ZM170.701 40.7642C171.108 40.561 169.581 38.7322 169.072 37.8178C168.36 36.497 167.138 36.8018 165.815 36.5986C164.797 36.3954 163.78 35.989 162.965 35.8874C162.253 35.8874 161.337 35.989 160.421 36.0906C159.403 36.1922 158.385 35.8874 157.368 36.1922C156.757 36.3954 156.35 37.3098 155.943 37.8178C155.434 38.3258 155.841 38.529 156.045 38.7322C156.248 38.8338 156.859 38.2242 157.062 38.2242C158.08 38.1226 156.961 40.053 158.691 39.4434C159.607 39.1386 160.116 40.053 161.032 39.8498C161.744 39.6466 162.355 38.8338 163.067 38.8338C163.678 38.8338 164.289 39.3418 164.899 39.4434C165.612 39.545 166.324 39.037 166.935 39.2402C168.054 39.545 169.581 41.1706 170.701 40.7642ZM158.589 59.3569C158.691 59.2553 159.403 58.9505 159.912 59.0521C160.625 59.2553 161.642 60.0681 161.642 60.3729C161.541 60.6777 160.319 60.8809 159.607 60.8809C159.098 60.8809 158.793 60.5761 158.487 60.2713C158.284 59.9665 158.487 59.5601 158.589 59.3569ZM156.146 59.2553C156.655 59.3569 157.062 59.8649 157.571 60.0681C157.877 60.2713 158.385 60.2713 158.385 60.6777C158.284 60.8809 157.877 60.7793 157.368 60.8809C156.859 60.9825 156.248 61.3889 155.841 61.3889C155.129 61.2873 154.62 60.8809 154.111 60.3729C153.806 60.1697 154.314 59.5601 154.62 59.3569C155.027 59.1537 155.638 59.1537 156.146 59.2553ZM157.266 30.4011C157.47 29.9947 156.655 29.4867 156.146 29.4867C155.536 29.4867 155.332 28.6739 154.925 28.7755C154.416 28.8771 153.602 29.2835 153.602 29.6899C153.704 30.1979 154.518 30.5027 155.027 30.7059C155.536 30.9091 156.554 31.3155 157.266 30.4011ZM155.536 26.0323C155.536 25.4227 155.027 24.9147 154.518 24.8131C154.009 24.7115 153.602 25.3211 153.398 25.8291C153.297 26.2355 153.704 26.3371 154.416 26.0323C154.722 25.9307 155.536 26.3371 155.536 26.0323ZM157.266 13.8404C157.978 13.6372 159.098 14.5516 159.505 14.0436C160.217 13.434 161.235 11.7068 160.828 11.1988C160.625 10.9956 159.301 10.7924 158.793 11.0972C157.571 11.91 156.859 13.2308 155.739 14.0436C154.213 15.0596 154.314 17.3964 154.009 18.9204C153.806 19.8348 153.398 19.6316 153.398 20.4444C153.297 20.9524 153.806 20.8508 153.806 21.2572C153.907 21.7652 153.195 22.5779 153.195 23.0859C153.195 23.2891 154.009 23.7971 154.213 23.5939C154.823 23.1875 154.111 21.8668 154.925 21.7652C155.536 21.7652 155.332 23.0859 155.841 23.5939C156.146 23.7971 155.841 24.2035 155.943 24.6099C155.943 25.3211 156.554 26.1339 157.266 26.0323C157.877 25.9307 156.961 24.9147 156.961 24.3051C156.757 22.9843 156.452 21.2572 156.757 20.4444C156.961 19.8348 158.08 21.7652 158.793 21.7652C159.81 21.7652 160.421 22.6795 160.625 22.4763C161.541 21.8668 160.217 21.1556 159.81 20.546C159.403 19.8348 158.182 19.6316 158.487 19.022C158.793 17.9044 160.014 18.4124 160.726 17.498C161.337 16.5836 161.439 15.7708 161.133 15.7708C160.421 15.974 159.81 15.5676 159.2 15.7708C158.487 15.974 158.284 17.0916 157.571 17.1932C157.164 17.2948 157.571 16.5836 157.47 16.1772C157.368 15.6692 156.452 15.2628 156.554 14.7548C156.554 14.3484 156.961 13.942 157.266 13.8404ZM150.345 36.9034C151.261 36.9034 152.584 37.513 153.093 38.021C153.398 38.2242 154.416 39.2402 154.009 39.545C152.788 40.3578 151.159 40.4594 149.734 40.2562C148.717 40.053 147.699 38.8338 147.902 37.8178C148.004 37.005 149.429 36.9034 150.345 36.9034ZM147.088 33.9571C148.31 33.4491 146.579 33.0427 146.783 32.5347C146.986 32.1283 148.31 31.8235 148.004 31.5187C146.986 30.9091 144.34 30.9091 143.119 30.8075C141.592 30.8075 141.694 30.0963 140.88 30.2995C140.167 30.4011 139.251 31.2139 139.557 31.8235C139.964 32.4331 141.185 31.9251 141.999 32.0267C143.119 32.0267 143.933 31.8235 145.053 32.0267C145.969 32.1283 146.07 34.3635 147.088 33.9571ZM135.893 33.0427C136.809 32.9411 138.132 32.6363 138.234 31.8235C138.335 31.1123 136.605 31.6203 136.198 31.1123C135.791 30.6043 136.3 29.9947 136.503 29.4867C136.707 29.0803 135.587 28.7755 135.18 28.6739C134.773 28.4707 133.857 28.2675 133.348 28.4707C132.636 28.6739 132.025 28.9787 132.025 29.5883C132.025 30.1979 133.247 30.0963 133.654 30.6043C133.959 31.1123 133.348 31.9251 133.755 32.3315C134.061 32.6363 134.671 31.9251 135.18 32.1283C135.486 32.2299 135.486 33.0427 135.893 33.0427ZM131.007 25.0163C130.906 24.4067 129.684 23.7971 129.074 23.8987C128.565 23.8987 128.26 24.1019 127.852 24.3051C127.344 24.4067 126.835 24.5083 126.631 24.8131C126.428 25.2195 127.038 25.9307 127.547 25.9307C128.056 26.0323 128.667 25.5243 129.175 25.3211C129.583 25.2195 131.109 25.4227 131.007 25.0163ZM127.547 48.181C128.158 48.3842 129.379 47.4698 128.87 47.165C128.056 46.4538 128.056 45.7426 127.445 45.7426C126.936 45.7426 126.936 46.5554 126.936 47.0634C126.936 47.4698 127.14 48.0794 127.547 48.181ZM133.654 43.8122C133.959 43.3042 134.671 42.8978 134.163 42.085C133.552 40.9674 131.516 40.9674 130.499 39.7482C130.091 39.3418 130.6 38.4274 130.397 37.9194C130.091 36.9034 128.972 36.1922 128.565 35.2779C127.852 33.7539 125.613 33.2459 126.122 32.0267C126.428 31.1123 129.277 30.6043 130.702 29.5883C132.331 28.3691 132.127 27.3531 132.941 27.0483C133.552 26.8451 134.264 27.5563 134.977 27.5563C135.384 27.5563 136.198 26.7435 135.893 26.4387C135.282 25.6259 134.061 25.8291 133.145 25.7275C132.229 25.5243 131.516 26.6419 130.6 26.8451C130.091 27.0483 129.481 26.6419 128.972 26.8451C128.565 26.9467 128.463 27.4547 128.056 27.5563C127.14 27.6579 126.122 26.7435 125.308 27.0483C124.188 27.4547 124.494 29.5883 122.356 29.4867C120.932 29.4867 121.949 27.8611 121.44 27.3531C120.83 26.8451 119.405 27.3531 119.303 26.6419C119.201 24.3051 119.201 22.9843 120.524 21.8668C121.542 21.1556 121.746 20.4444 122.662 20.3428C124.596 20.1396 126.733 21.4604 129.175 21.3588C129.99 21.3588 131.109 21.2572 132.025 21.3588C133.959 21.4604 136.096 22.1715 137.928 21.562C140.575 20.6476 141.999 19.4284 143.73 17.3964C144.238 16.8884 144.137 15.466 143.526 15.2628C143.017 15.0596 142.61 14.958 142.101 15.2628C141.592 15.5676 141.592 16.2788 141.185 16.6852C140.167 17.5996 138.539 18.1076 137.725 18.9204C136.809 19.9364 134.977 18.2092 133.552 18.1076C133.145 18.1076 132.432 18.8188 131.923 18.8188C130.906 18.8188 130.295 18.4124 129.175 18.3108C128.565 18.2092 127.954 18.1076 127.344 18.1076C125.919 18.006 126.122 16.8884 123.069 16.99C122.56 16.99 122.865 17.9044 122.458 18.2092C121.644 18.8188 120.524 18.7172 119.71 19.3268C119.1 19.8348 118.998 20.7492 118.489 21.3588C118.285 21.6636 117.573 21.7652 117.471 22.1715C117.268 23.5939 117.675 24.8131 117.268 26.2355C116.962 27.4547 115.843 28.3691 115.436 29.4867C115.028 30.5027 115.436 31.6203 115.232 32.6363C115.232 32.9411 114.825 32.9411 114.621 33.1443C114.418 33.4491 114.316 33.8555 114.011 34.1603C113.705 34.4651 112.688 34.7699 112.789 35.1763C113.298 36.9034 112.891 37.6146 113.807 38.529C114.316 39.037 116.657 38.1226 116.555 38.8338C116.25 40.7642 116.657 41.9834 116.555 43.609C116.453 44.8282 115.944 45.641 115.741 46.9618C115.741 47.3682 116.759 48.181 117.268 48.689C117.471 48.8922 118.184 47.8762 118.692 47.7746C119.303 47.5714 120.117 48.3842 120.524 47.8762C120.83 47.4698 120.219 46.7586 120.117 46.2506C120.016 45.8442 119.608 45.641 119.71 45.2346C119.812 44.625 120.321 44.625 120.423 44.0154C120.524 43.4058 120.016 42.4914 120.016 41.8818C120.016 40.561 121.135 39.2402 121.033 37.9194C120.932 37.3098 119.608 36.9034 119.71 36.2938C119.812 35.5826 120.83 34.7699 121.542 34.7699C122.56 34.6683 124.087 35.1763 124.087 36.0906C124.188 37.6146 122.865 37.9194 122.967 38.7322C122.967 39.4434 124.188 39.7482 124.494 40.3578C124.799 40.8658 124.596 41.069 124.901 41.6786C125.003 41.8818 125.41 42.085 125.613 42.2882C126.02 42.8978 126.02 43.609 126.428 44.2186C126.529 44.4218 126.733 44.4218 127.038 44.625C127.14 44.7266 127.547 45.2346 127.751 45.133C128.565 45.0314 128.972 43.8122 129.786 44.2186C130.397 44.5234 129.175 45.5394 129.277 46.2506C129.379 46.8602 129.888 47.165 130.193 47.5714C130.702 48.2826 130.193 48.689 131.72 48.9938C132.432 49.0953 132.229 47.3682 132.941 47.3682C133.247 47.3682 133.959 47.165 134.264 46.4538C134.264 46.2506 133.552 44.0154 133.654 43.8122ZM120.728 52.2449C120.524 51.7369 120.728 51.1273 120.626 50.6193C120.626 50.1113 120.117 49.6033 120.728 49.0953C121.135 48.689 121.644 49.4001 121.848 49.9081C122.153 50.6193 121.339 51.1273 121.542 51.9401C121.644 52.2449 120.83 52.5497 120.728 52.2449ZM145.867 58.4425C145.663 58.0361 145.969 57.4265 146.376 57.2233C147.394 56.6137 148.513 56.0041 149.734 56.1057C150.549 56.1057 151.668 56.5121 152.075 57.3249C152.279 57.7313 151.058 57.6297 150.549 57.9345C150.243 58.0361 150.04 58.2393 149.734 58.3409C149.124 58.4425 148.513 58.2393 147.902 58.4425C147.597 58.5441 147.495 59.0521 147.088 59.0521C146.681 59.0521 146.07 58.8489 145.867 58.4425ZM127.445 71.8536C127.954 71.9552 127.649 70.8376 127.649 70.228C127.751 69.8216 128.361 69.72 127.751 68.8056C127.344 68.2976 126.428 69.212 125.919 69.6184C125.613 69.9232 125.308 70.4312 125.715 70.6344C126.733 71.0408 127.14 71.8536 127.445 71.8536ZM125.512 72.8696C125.919 72.5648 125.206 72.0568 125.512 71.4472C125.613 71.244 125.41 70.736 125.206 70.8376C124.494 70.9392 124.087 71.1424 123.68 71.8536C123.476 72.1584 123.883 72.4632 124.29 72.6664C124.697 72.8696 125.206 73.1744 125.512 72.8696ZM120.219 69.6184C120.626 69.72 121.644 69.1104 122.967 68.5008C123.272 68.2976 123.069 66.7736 122.56 66.5704C120.932 65.8592 120.117 64.7416 118.489 64.132C117.98 63.9288 117.471 64.64 116.962 64.64C116.25 64.5384 115.741 63.7256 115.028 63.7256C114.112 63.8272 113.298 64.5384 112.382 64.9448C112.179 65.0464 113.4 66.5704 114.316 67.0784C115.232 67.5864 116.352 67.3832 117.369 67.5864C117.878 67.688 118.387 67.8912 118.896 68.196C119.507 68.6024 119.507 69.4152 120.219 69.6184ZM102.408 62.7096C103.426 62.9128 104.037 63.8272 105.054 63.8272C106.479 63.7256 107.192 62.7096 108.617 62.4048C108.922 62.3032 109.736 62.8112 110.041 62.8112C110.55 62.7096 110.754 62.2016 111.263 62.1C111.772 61.9985 112.281 62.3032 112.789 62.3032C113.197 62.3032 113.502 62.1 113.807 62.2016C115.334 62.7096 114.927 61.7953 115.436 61.9985C115.944 62.1 115.843 62.8112 116.352 62.8112C117.064 62.9128 117.675 62.7096 118.387 62.608C119.405 62.5064 120.016 62.8112 121.339 62.608C122.458 62.4048 123.578 63.2176 125.613 62.7096C125.919 62.608 126.326 62.4048 126.631 62.4048C127.14 62.4048 127.649 62.608 128.056 62.5064C128.565 62.4048 128.87 62.2016 129.277 62.1C129.888 62.1 130.499 62.3032 131.007 62.1C131.72 61.9985 132.127 61.2873 132.839 61.1857C133.348 61.0841 133.959 61.4905 134.468 61.3889C134.977 61.2873 135.384 60.4745 135.893 60.5761C136.3 60.6777 135.282 61.5921 136.809 61.8969C138.946 62.4048 139.353 61.0841 140.778 60.5761C141.592 60.3729 143.221 60.4745 143.221 59.6617C143.323 58.8489 140.982 58.7473 140.167 58.7473C138.946 58.8489 138.335 59.7633 137.114 59.8649C136.707 59.9665 137.012 59.0521 135.995 59.0521C135.486 59.0521 135.079 59.4585 134.57 59.5601C133.45 59.5601 132.738 59.1537 131.618 59.3569C130.397 59.6617 129.888 60.4745 128.667 60.7793C127.649 60.9825 126.02 60.7793 125.003 60.7793C124.494 60.7793 123.985 61.0841 123.476 61.0841C122.255 60.8809 122.56 59.6617 120.219 59.8649C117.878 60.0681 117.573 61.3889 115.843 61.1857C113.705 60.8809 114.52 60.0681 113.502 59.6617C113.095 59.4585 112.382 60.3729 110.856 60.1697C109.634 59.9665 109.024 57.8329 108.311 58.7473C107.497 59.6617 111.059 60.6777 110.041 61.2873C109.94 61.3889 108.82 61.3889 108.311 60.9825C107.599 60.3729 106.581 60.0681 105.665 59.8649C105.156 59.6617 104.545 60.1697 104.037 59.9665C103.528 59.7633 103.426 59.2553 103.019 58.9505C102.51 58.6457 101.696 58.3409 101.085 58.4425C100.373 58.5441 99.4566 59.7633 98.7442 59.9665C98.2353 60.0681 97.9299 59.4585 97.5228 59.1537C96.8104 58.8489 96.6068 58.2393 95.8944 58.0361C95.2837 57.8329 94.7749 58.0361 94.0624 58.3409C93.7571 58.5441 93.7571 58.9505 93.8589 59.2553C93.8589 59.6617 94.0624 59.9665 94.266 60.2713C94.7749 60.8809 95.2837 61.4905 95.9962 61.6937C96.7086 61.9985 97.1157 61.6937 97.8282 61.8969C98.3371 62.1 98.8459 62.9128 99.3548 62.9128C100.271 63.116 101.492 62.4048 102.408 62.7096ZM94.9784 53.4641C94.8766 53.9721 95.6908 54.4801 96.3015 54.6833C96.6068 54.7849 97.0139 54.4801 97.1157 54.3785C97.3193 54.0737 97.0139 53.7689 96.7086 53.6673C96.098 53.4641 95.0802 53.2609 94.9784 53.4641ZM98.9477 43.4058C99.3548 43.5074 99.5584 43.3042 99.7619 42.9994C99.9655 42.7962 99.4566 42.4914 99.5584 42.2882C99.5584 41.9834 99.9655 41.7802 99.9655 41.577C99.9655 41.4754 99.8637 41.069 99.6602 41.069C98.8459 41.1706 99.253 41.7802 99.0495 42.085C98.7442 42.3898 98.3371 42.593 98.2353 42.8978C98.2353 43.2026 98.7442 43.4058 98.9477 43.4058ZM83.1723 48.8922C83.5794 49.0953 84.19 48.5874 84.19 48.181C84.19 47.7746 83.4776 47.165 83.1723 47.4698C82.7652 47.7746 82.7652 48.5874 83.1723 48.8922ZM72.8928 48.9938C73.4017 49.0953 73.5035 48.3842 73.4017 47.9778C73.4017 47.7746 72.6892 47.8762 72.4857 47.8762C72.0786 47.8762 71.875 47.3682 71.4679 47.4698C71.0608 47.673 70.6537 48.0794 70.7555 48.4858C70.8573 48.8922 71.3661 48.9938 71.875 49.0953C72.1804 49.1969 72.4857 48.7906 72.8928 48.9938ZM92.8411 62.2016C93.4518 62.2016 92.9429 61.0841 92.9429 60.4745C92.8411 59.6617 92.434 59.0521 92.7393 58.3409C93.0446 57.4265 91.8233 56.7153 91.2127 56.4105C90.0931 55.8009 89.7878 56.5121 88.9736 56.5121C88.4647 56.5121 87.854 56.3089 87.2434 56.3089C86.4291 56.3089 85.6149 56.4105 84.9025 56.1057C84.2918 55.9025 83.7829 54.3785 84.0883 54.2769C84.8007 54.1753 85.5131 54.6833 86.4291 54.5817C87.5487 54.4801 88.9736 54.9881 89.5842 54.0737C90.0931 53.3625 88.77 52.7529 87.9558 52.5497C87.0398 52.1433 85.9202 52.3465 85.0043 52.5497C84.3936 52.6513 84.0883 53.2609 83.4776 53.3625C83.0705 53.3625 82.8669 52.8545 82.4598 52.7529C81.035 52.4481 79.4065 52.5497 77.9816 52.0417C76.8621 51.7369 76.0479 50.8225 74.8266 50.6193C74.4194 50.5177 73.8088 50.8225 73.6052 51.2289C73.2999 51.7369 73.2999 52.2449 71.3661 52.5497C70.5519 52.7529 69.5341 52.2449 68.7199 52.1433C68.0075 52.1433 67.3968 52.7529 66.6844 52.6513C64.3435 52.2449 64.14 49.7049 62.6133 49.8065C61.4938 49.9081 60.2724 49.8065 59.1529 49.4001C58.5422 49.1969 58.9493 48.5874 57.728 48.181C57.2191 48.0794 56.9138 48.0794 56.4049 48.181C55.7943 48.2826 55.1836 48.4858 54.5729 48.5874C53.8605 48.5874 53.148 47.9778 52.4356 48.0794C51.6214 48.181 50.9089 48.9938 50.4001 49.5017C49.8912 50.1113 50.5018 50.8225 49.4841 51.2289C49.077 51.4321 48.4663 51.5337 47.9574 51.2289C47.6521 51.0257 47.245 51.2289 47.0414 51.0257C46.8379 50.7209 47.1432 50.3145 46.9396 50.1113C46.6343 49.9081 45.8201 49.9081 45.7183 50.2129C45.5148 50.8225 46.1254 50.6193 46.4308 51.7369C46.8379 52.6513 47.5503 53.3625 48.6699 53.6673C49.6876 53.8705 51.1125 53.1593 52.1303 53.5657C52.4356 53.6673 53.148 53.7689 53.2498 53.9721C53.2498 54.3785 52.4356 54.5817 52.6392 54.8865C53.0463 55.4961 54.6747 55.5977 55.7943 55.8009C56.4049 55.9025 57.1174 55.4961 57.4227 55.9025C57.728 56.3089 58.5422 56.8169 59.0511 56.8169C59.56 56.8169 60.0689 57.3249 60.6795 57.5281C60.9849 57.6297 61.0867 57.5281 61.4938 57.6297C61.9009 57.7313 63.1222 58.3409 63.4275 58.3409C64.8524 58.3409 64.4453 57.7313 65.3613 57.7313C65.6666 57.7313 66.0737 57.8329 66.3791 57.8329C67.0915 57.8329 67.7022 57.5281 68.4146 57.5281C68.7199 57.5281 68.8217 58.0361 69.127 57.9345C69.5341 57.9345 69.2288 57.3249 69.6359 57.3249C70.5519 57.2233 70.3484 58.1377 70.8573 58.1377C71.6715 58.1377 75.4372 60.1697 76.8621 60.2713C77.5745 60.2713 79.5083 59.6617 80.2207 59.7633C81.4421 59.8649 82.1545 60.4745 83.8847 60.5761C84.9025 60.5761 86.022 59.9665 87.0398 60.3729C88.0576 60.7793 88.9736 60.1697 89.8896 60.4745C90.8055 60.8809 90.9073 61.9985 92.8411 62.2016ZM141.694 64.132C141.694 63.4208 141.287 63.624 140.778 63.116C139.15 64.132 137.623 63.9288 136.096 64.9448C135.18 65.5544 135.486 66.7736 134.061 67.7896C133.654 68.0944 132.941 68.2976 132.534 68.6024C132.331 68.8056 132.229 69.212 132.127 69.5168C132.127 70.0248 130.702 70.5328 130.906 70.9392C131.313 71.5488 131.516 72.26 132.229 72.3616C134.061 72.768 134.264 71.0408 135.587 70.4312C135.995 70.228 136.402 70.1264 136.911 70.1264C138.132 70.228 139.964 68.8056 141.389 67.7896C141.796 67.4848 142.101 66.3672 142.915 66.0624C142.814 65.7576 142.61 65.3512 142.101 65.2496C141.389 65.148 141.694 64.4368 141.694 64.132Z" fill="#DCDDDD" fill-opacity="0.501961"/>
</svg>
