<svg width="242" height="229" viewBox="0 0 242 229" fill="none" xmlns="http://www.w3.org/2000/svg">
<g clip-path="url(#clip0_387_64)">
<mask id="mask0_387_64" style="mask-type:luminance" maskUnits="userSpaceOnUse" x="0" y="0" width="242" height="229">
<path d="M242 0H0V229H242V0Z" fill="white"/>
</mask>
<g mask="url(#mask0_387_64)">
<path d="M206.159 226.722C225.954 226.722 242.002 225.616 242.002 224.251C242.002 222.887 225.954 221.781 206.159 221.781C186.364 221.781 170.316 222.887 170.316 224.251C170.316 225.616 186.364 226.722 206.159 226.722Z" fill="#D2D3D5"/>
<path d="M58.0759 229.398C90.284 229.398 116.394 226.406 116.394 222.714C116.394 219.023 90.284 216.031 58.0759 216.031C25.8677 216.031 -0.242188 219.023 -0.242188 222.714C-0.242188 226.406 25.8677 229.398 58.0759 229.398Z" fill="#D2D3D5"/>
<path d="M219.062 115.495C219.516 112.174 214.817 109.429 211.3 109.155C209.611 109.018 207.866 109.278 206.272 108.716C202.824 107.508 201.437 103.048 198.071 101.635C195.557 100.578 192.644 101.525 190.199 102.746C187.753 103.981 185.336 105.518 182.615 105.697C180.239 105.848 177.656 104.969 175.582 106.122C174.029 106.987 173.219 108.771 171.79 109.814C170.389 110.843 168.575 111.062 166.844 111.158C165.113 111.255 163.313 111.268 161.747 111.996C160.167 112.723 158.862 114.383 159.192 116.085L219.062 115.495Z" fill="#E5E6E5"/>
<path d="M103.687 12.1726C104.044 9.63383 100.444 7.53416 97.7381 7.31459C96.4467 7.20481 95.1141 7.41066 93.8914 6.98523C91.2537 6.06577 90.1959 2.64867 87.6131 1.56453C85.6898 0.754862 83.4642 1.48219 81.5958 2.41538C79.7275 3.34856 77.8866 4.54249 75.7846 4.666C73.9712 4.77578 71.9929 4.10334 70.4131 4.99536C69.2316 5.65407 68.6134 7.01268 67.5143 7.82235C66.4428 8.60458 65.0552 8.76926 63.7226 8.8516C62.4038 8.92022 61.03 8.93394 59.821 9.48287C58.6121 10.0318 57.6229 11.3081 57.8702 12.6118L103.673 12.1589L103.687 12.1726Z" fill="#EFEFEF"/>
<path d="M191.264 172.928L179.34 224.623L184.382 224.61L196.32 173.408L191.264 172.928Z" fill="#D9DAD9"/>
<path d="M213 172.928L224.966 224.623H229.76L218.179 172.928H213Z" fill="#D9DAD9"/>
<path d="M183.215 134.09L190.001 169.688H197.708L190.469 134.09H183.215Z" fill="#D9DAD9"/>
<path d="M65 172.928L55.2734 224.623H60.2191L70.3853 172.928H65Z" fill="#D9DAD9"/>
<path d="M85.4375 172.928L96.5516 224.335H101.442L90.7129 172.928H85.4375Z" fill="#D9DAD9"/>
<path d="M56.9492 134.09L63.7358 169.688H71.4566L64.2029 134.09H56.9492Z" fill="#D9DAD9"/>
<path d="M41.6719 130.852L43.0732 137.329H197.942L196.143 130.852H41.6719Z" fill="#E5E6E5"/>
<path d="M44.6367 143.422L46.2715 149.899H200.097L198.695 143.422H44.6367Z" fill="#E5E6E5"/>
<path d="M47.6914 156.432L49.2163 162.909H202.574L201.118 156.432H47.6914Z" fill="#E5E6E5"/>
<path d="M59.4219 176.151H224.787V169.688H59.4219V176.151Z" fill="#E5E6E5"/>
<path d="M178.654 40.7582C176.8 40.7582 175.151 41.7188 174.23 43.3244L153.335 79.7186C152.414 81.3242 152.414 83.2317 153.349 84.8236C154.269 86.4156 155.931 87.3625 157.772 87.3625H157.786L199.783 87.2389C201.638 87.2389 203.286 86.2783 204.207 84.6727C205.127 83.0671 205.114 81.1595 204.193 79.5676L183.078 43.297C182.157 41.7051 180.495 40.7582 178.654 40.7582ZM157.772 89.5445C155.148 89.5445 152.799 88.1996 151.467 85.9215C150.148 83.6434 150.134 80.9262 151.439 78.6344L172.335 42.2403C173.64 39.9622 176.003 38.5899 178.64 38.5762H178.668C181.292 38.5762 183.641 39.9348 184.974 42.1991L206.089 78.4698C207.408 80.7478 207.422 83.465 206.117 85.7568C204.811 88.0349 202.448 89.4072 199.811 89.421L157.814 89.5445H157.786H157.772Z" fill="#E5E6E5"/>
<path d="M174.571 56.4976L175.546 70.07C175.629 71.1816 176.521 72.0598 177.634 72.1147C178.802 72.1696 179.819 71.3051 179.942 70.1386L181.33 56.4702C181.44 55.441 180.615 54.5489 179.571 54.5627L176.26 54.6313C175.271 54.6587 174.502 55.4958 174.571 56.4839V56.4976Z" fill="#E5E6E5"/>
<path d="M181.309 79.7312C180.745 81.4741 178.877 82.4347 177.132 81.872C175.388 81.3094 174.426 79.443 174.989 77.7002C175.552 75.9573 177.421 74.9967 179.166 75.5593C180.91 76.122 181.872 77.9883 181.309 79.7312Z" fill="#E5E6E5"/>
<path d="M150.89 167.136L96.7891 167.108C90.2773 167.108 85.0156 161.564 85.0156 154.73L85.0431 12.3647C85.0431 5.53049 90.3185 0 96.8304 0L150.931 0.0274466C157.443 0.0274466 162.704 5.57166 162.704 12.4059L162.677 154.771C162.677 161.605 157.401 167.136 150.89 167.136Z" fill="#2C3C43"/>
<path d="M150.874 5.0645H140.392C138.991 5.0645 137.85 6.31332 137.85 7.86406V9.86766C137.85 11.4047 136.71 12.6672 135.309 12.6672L114.867 12.6535C113.465 12.6535 112.325 11.4047 112.325 9.85393V7.85033C112.325 6.31332 111.185 5.05078 109.783 5.05078H106.102H96.9247C92.3636 5.05078 88.6681 8.92075 88.6681 13.7102L88.6406 152.672C88.6406 157.462 92.3362 161.332 96.8835 161.332L150.874 161.359C155.435 161.359 159.131 157.489 159.131 152.7L159.158 13.7376C159.158 8.9482 155.463 5.07823 150.915 5.07823L150.874 5.0645Z" fill="#FEFEFE"/>
<path d="M103.353 148.238V151.641C103.353 151.929 103.023 152.121 102.776 151.957L100.097 150.255C99.8635 150.104 99.8635 149.775 100.097 149.624L102.776 147.922C103.023 147.757 103.353 147.949 103.353 148.238Z" fill="#D9DAD9"/>
<path d="M125.347 149.911C125.347 151.215 124.289 152.258 122.998 152.258C121.706 152.258 120.648 151.201 120.648 149.911C120.648 148.607 121.706 147.564 122.998 147.564C124.289 147.564 125.347 148.621 125.347 149.911Z" fill="#D9DAD9"/>
<path d="M145.532 152.206H143.21C142.66 152.206 142.207 151.753 142.207 151.204V148.871C142.207 148.322 142.66 147.869 143.21 147.869H145.532C146.081 147.869 146.535 148.322 146.535 148.871V151.204C146.535 151.753 146.081 152.206 145.532 152.206Z" fill="#D9DAD9"/>
<path d="M150.714 66.4611C150.714 81.1587 138.775 93.0843 124.062 93.0843C109.335 93.0843 97.4102 81.1587 97.4102 66.4611C97.4102 51.7634 109.349 39.8379 124.062 39.8379C138.775 39.8379 150.714 51.7634 150.714 66.4611Z" fill="#EFEFEF"/>
<path d="M128.316 80.637C128.302 82.3798 126.887 83.7933 125.128 83.7933C123.384 83.7796 121.969 82.3661 121.969 80.6095C121.982 78.8667 123.398 77.4532 125.156 77.4669C126.901 77.4806 128.316 78.8941 128.302 80.6507L128.316 80.637Z" fill="#238F9D"/>
<path d="M118.807 76.5765C122.283 72.9262 127.943 72.8164 131.501 76.4119C133.122 78.0449 135.65 75.5336 134.029 73.9005C129.138 68.9738 121.101 69.0013 116.293 74.0515C114.713 75.712 117.213 78.2371 118.793 76.5765H118.807Z" fill="#238F9D"/>
<path d="M108.053 61.8494C112.875 57.6913 118.618 55.0701 125.061 55.0564C131.449 55.0427 137.741 57.307 142.412 61.6847C144.088 63.2492 146.616 60.7516 144.94 59.1734C139.582 54.1506 132.411 51.4746 125.075 51.4883C117.67 51.5021 111.076 54.5349 105.539 59.3106C103.808 60.8064 106.322 63.3315 108.053 61.8357V61.8494Z" fill="#238F9D"/>
<path d="M112.298 70.017C115.527 66.5313 120.046 64.3493 124.841 64.2395C129.759 64.1297 134.499 66.147 137.906 69.6602C139.513 71.307 142.041 68.7956 140.434 67.1488C136.395 63.0044 130.666 60.5479 124.855 60.6852C119.167 60.8087 113.658 63.3337 109.798 67.4919C108.245 69.1661 110.746 71.705 112.312 70.017H112.298Z" fill="#238F9D"/>
<path d="M143.569 57.9794L142.195 56.6071L148.364 50.4453L149.738 51.8176L143.569 57.9794Z" fill="#FEFEFE"/>
<path d="M149.738 56.6071L148.364 57.9794L142.195 51.8176L143.569 50.4453L149.738 56.6071Z" fill="#FEFEFE"/>
<path d="M123.222 22.3135C122.48 23.0683 122.508 24.2897 123.264 25.017C124.019 25.7581 125.242 25.7306 125.97 24.9759C126.712 24.2211 126.684 22.9997 125.929 22.2724C125.173 21.545 123.95 21.5588 123.222 22.3135ZM122.274 19.9394C122.618 19.7336 122.975 19.5826 123.346 19.4728L123.566 18.4161L125.352 18.3887L125.613 19.4316C125.984 19.5277 126.355 19.6649 126.698 19.8571L127.605 19.267L128.882 20.5021L128.319 21.4215C128.525 21.7646 128.676 22.1214 128.786 22.4919L129.844 22.7115L129.872 24.4955L128.827 24.7563C128.731 25.1268 128.594 25.4973 128.402 25.8404L128.992 26.7462L127.756 28.0361L126.835 27.4735C126.492 27.6793 126.135 27.8303 125.764 27.9401L125.544 28.9968L123.758 29.0242L123.497 27.9812C123.126 27.8852 122.755 27.748 122.412 27.5558L121.505 28.1459L120.227 26.9108L120.791 25.9914C120.585 25.6483 120.433 25.2915 120.324 24.921L119.266 24.7014L119.238 22.9174L120.282 22.6566C120.379 22.2861 120.516 21.9156 120.708 21.5725L120.118 20.6667L121.354 19.3767L122.274 19.9394Z" fill="#D9DAD9"/>
<path d="M99.6059 23.9339C99.0426 23.9339 98.3283 23.9201 97.6139 23.9064C96.7621 23.8927 95.9104 23.879 95.3196 23.879C95.1685 23.879 95.0586 23.7554 95.0586 23.6182C95.0586 23.4673 95.1822 23.3438 95.3196 23.3438C95.9104 23.3438 96.7759 23.3575 97.6276 23.3712C98.4794 23.3849 99.3311 23.3986 99.9219 23.3986C100.073 23.3986 100.183 23.5222 100.183 23.6594C100.183 23.8103 100.073 23.9339 99.9219 23.9339C99.8257 23.9339 99.7158 23.9339 99.6059 23.9339Z" fill="#2C3C43"/>
<path d="M96.9521 25.7181C96.8834 25.7181 96.801 25.6907 96.746 25.6221L95.1112 23.7832C95.015 23.6734 95.015 23.5224 95.1112 23.4263L96.7048 21.7521C96.8147 21.6423 96.9796 21.6423 97.0895 21.7384C97.1994 21.8344 97.1994 22.0129 97.1032 22.1226L95.6882 23.6185L97.1582 25.2653C97.2543 25.3751 97.2406 25.5397 97.1307 25.6495C97.0757 25.6907 97.0208 25.7181 96.9521 25.7181Z" fill="#2C3C43"/>
<path d="M153.008 21.5324C153.008 21.9853 152.637 22.3696 152.17 22.3696C151.717 22.3696 151.332 21.999 151.332 21.5324C151.332 21.0796 151.703 20.6953 152.17 20.6953C152.623 20.6953 153.008 21.0658 153.008 21.5324Z" fill="#2C3C43"/>
<path d="M153.008 24.1535C153.008 24.6064 152.637 24.9906 152.17 24.9906C151.717 24.9906 151.332 24.6201 151.332 24.1535C151.332 23.7007 151.703 23.3164 152.17 23.3164C152.623 23.3164 153.008 23.6869 153.008 24.1535Z" fill="#2C3C43"/>
<path d="M153.008 26.7746C153.008 27.2275 152.637 27.6117 152.17 27.6117C151.717 27.6117 151.332 27.2412 151.332 26.7746C151.332 26.3218 151.703 25.9375 152.17 25.9375C152.623 25.9375 153.008 26.308 153.008 26.7746Z" fill="#2C3C43"/>
<path d="M106.005 103.075C106.005 103.157 104.302 103.212 102.2 103.212C100.098 103.212 98.3945 103.143 98.3945 103.075C98.3945 102.992 100.098 102.938 102.2 102.938C104.302 102.938 106.005 103.006 106.005 103.075Z" fill="#2C3C43"/>
<path d="M119.647 111.967C119.647 112.05 114.976 112.105 109.22 112.105C103.45 112.105 98.793 112.036 98.793 111.967C98.793 111.885 103.464 111.83 109.22 111.83C114.976 111.83 119.647 111.899 119.647 111.967Z" fill="#2C3C43"/>
<path d="M119.647 120.793C119.647 120.876 114.976 120.931 109.22 120.931C103.45 120.931 98.793 120.862 98.793 120.793C98.793 120.711 103.464 120.656 109.22 120.656C114.976 120.656 119.647 120.725 119.647 120.793Z" fill="#2C3C43"/>
<path d="M147.235 115.291H139.596C137.755 115.291 136.258 113.795 136.258 111.956C136.258 110.117 137.755 108.621 139.596 108.621H147.235C149.075 108.621 150.573 110.117 150.573 111.956C150.573 113.795 149.075 115.291 147.235 115.291Z" fill="#BDBFC1"/>
<path d="M142.363 111.967C142.363 113.504 141.113 114.753 139.574 114.753C138.035 114.753 136.785 113.504 136.785 111.967C136.785 110.43 138.035 109.182 139.574 109.182C141.113 109.182 142.363 110.43 142.363 111.967Z" fill="#50647F"/>
<path d="M147.235 124.129H139.596C137.755 124.129 136.258 122.633 136.258 120.794C136.258 118.955 137.755 117.459 139.596 117.459H147.235C149.075 117.459 150.573 118.955 150.573 120.794C150.573 122.633 149.075 124.129 147.235 124.129Z" fill="#BDBFC1"/>
<path d="M142.363 120.794C142.363 122.331 141.113 123.579 139.574 123.579C138.035 123.579 136.785 122.331 136.785 120.794C136.785 119.257 138.035 118.008 139.574 118.008C141.113 118.008 142.363 119.257 142.363 120.794Z" fill="#50647F"/>
<path d="M119.647 129.67C119.647 129.753 114.976 129.808 109.22 129.808C103.45 129.808 98.793 129.739 98.793 129.67C98.793 129.588 103.464 129.533 109.22 129.533C114.976 129.533 119.647 129.602 119.647 129.67Z" fill="#2C3C43"/>
<path d="M147.235 133.996H139.596C137.755 133.996 136.258 132.5 136.258 130.661C136.258 128.822 137.755 127.326 139.596 127.326H147.235C149.075 127.326 150.573 128.822 150.573 130.661C150.573 132.5 149.075 133.996 147.235 133.996Z" fill="#BDBFC1"/>
<path d="M142.363 130.659C142.363 132.196 141.113 133.445 139.574 133.445C138.035 133.445 136.785 132.196 136.785 130.659C136.785 129.122 138.035 127.873 139.574 127.873C141.113 127.873 142.363 129.122 142.363 130.659Z" fill="#50647F"/>
<path d="M182.691 168.826C185.302 187.353 187.898 205.893 190.508 224.419L192.542 224.488C191.25 205.605 189.863 186.351 182.691 168.826Z" fill="#238F9D"/>
<path d="M204.397 166.232C198.943 172.202 196.745 180.422 195.358 188.396C193.393 199.704 193.215 213.043 193.805 224.502L196.663 224.57C195.509 204.781 198.188 185.061 204.397 166.246V166.232Z" fill="#238F9D"/>
<path d="M184.125 201.718C183.493 198.96 182.779 196.16 181.213 193.813C179.083 190.643 175.621 188.64 172.132 187.075C168.642 185.511 164.974 184.262 161.828 182.107C165.345 187.857 173.313 189.394 177.38 194.774C179.399 197.45 180.237 200.812 181.034 204.065C182.765 211.173 183.823 217.321 185.554 224.43H187.862C187.106 216.704 185.856 209.266 184.125 201.704V201.718Z" fill="#238F9D"/>
<path d="M198.742 224.488C198.742 224.488 200.707 202.407 202.149 198.359C203.605 194.31 217.316 183.099 217.192 183.634C217.055 184.155 206.903 196.41 205.446 198.921C203.99 201.419 201.49 224.502 201.49 224.502H198.742V224.488Z" fill="#238F9D"/>
<path d="M133.897 201.402C134.996 201.8 135.848 202.734 136.301 203.79C136.768 204.861 136.878 206.055 136.823 207.207C136.713 209.458 135.587 211.791 134.337 213.671C132.345 212.148 131.726 209.321 131.507 207.866C131.149 205.561 131.919 201.183 133.883 201.402H133.897Z" fill="#238F9D"/>
<path d="M136.78 217.212C136.396 215.977 136.835 214.55 137.742 213.63C138.662 212.711 139.981 212.258 141.286 212.272C141.891 212.272 142.55 212.409 142.921 212.876C143.265 213.315 143.278 213.96 143.045 214.468C142.811 214.975 142.385 215.387 141.932 215.716C140.366 216.842 138.649 217.651 136.766 217.212H136.78Z" fill="#005F90"/>
<path d="M134.802 224.21C134.788 224.21 134.802 224.045 134.843 223.744C134.884 223.414 134.926 222.989 134.994 222.495C135.132 221.452 135.31 219.942 136.025 218.446C136.725 216.964 137.769 215.825 138.676 215.249C139.13 214.947 139.514 214.768 139.803 214.659C139.94 214.604 140.05 214.576 140.132 214.549C140.215 214.521 140.242 214.521 140.256 214.521C140.27 214.563 139.61 214.714 138.745 215.331C137.879 215.935 136.863 217.047 136.176 218.515C135.475 219.983 135.297 221.452 135.118 222.508C135.036 223.03 134.967 223.469 134.926 223.757C134.871 224.045 134.83 224.21 134.83 224.21H134.802Z" fill="#2C3C43"/>
<path d="M133.624 204.781C133.624 204.781 133.637 204.85 133.665 204.973C133.679 205.124 133.706 205.316 133.733 205.55C133.788 206.044 133.871 206.771 133.953 207.663C134.132 209.447 134.338 211.917 134.503 214.648C134.668 217.379 134.764 219.863 134.805 221.647C134.833 222.539 134.833 223.267 134.833 223.774C134.833 224.008 134.833 224.2 134.833 224.351C134.833 224.488 134.833 224.557 134.819 224.557C134.819 224.557 134.805 224.488 134.791 224.351C134.778 224.2 134.778 224.008 134.764 223.774C134.736 223.253 134.709 222.539 134.681 221.647C134.613 219.863 134.503 217.379 134.324 214.648C134.159 211.917 133.967 209.447 133.83 207.663C133.761 206.785 133.706 206.071 133.665 205.55C133.651 205.316 133.637 205.124 133.624 204.973C133.61 204.836 133.61 204.768 133.624 204.768V204.781Z" fill="#2C3C43"/>
<path d="M133.608 218.791C133.004 216.115 131.025 213.796 128.484 212.78C127.838 212.519 127 212.382 126.519 212.876C126.039 213.384 126.203 214.207 126.492 214.839C127.728 217.474 130.682 219.203 133.581 218.983L133.608 218.791Z" fill="#005F90"/>
<path d="M128.922 214.865C128.922 214.852 129.073 214.907 129.334 215.016C129.471 215.071 129.623 215.126 129.801 215.222C129.98 215.318 130.186 215.401 130.406 215.552C130.625 215.689 130.859 215.826 131.092 216.004C131.34 216.169 131.573 216.375 131.834 216.594C132.329 217.047 132.837 217.583 133.277 218.214C133.716 218.845 134.046 219.518 134.28 220.135C134.39 220.451 134.5 220.753 134.554 221.041C134.637 221.329 134.678 221.603 134.719 221.851C134.774 222.098 134.774 222.331 134.802 222.523C134.829 222.715 134.829 222.893 134.816 223.031C134.816 223.305 134.802 223.47 134.802 223.47C134.761 223.47 134.788 222.852 134.609 221.864C134.554 221.617 134.513 221.356 134.431 221.068C134.362 220.78 134.252 220.492 134.142 220.19C133.895 219.586 133.579 218.927 133.139 218.31C132.7 217.692 132.219 217.157 131.738 216.704C131.491 216.485 131.257 216.279 131.024 216.114C130.79 215.936 130.557 215.785 130.351 215.648C129.499 215.126 128.922 214.907 128.936 214.865H128.922Z" fill="#2C3C43"/>
<path d="M39.7347 195.09L24.6641 207.441L39.9408 226.255C41.6443 224.691 37.358 212.024 37.358 212.024L47.3456 204.504L39.7347 195.09Z" fill="#42616A"/>
<path d="M32.8922 207.194C32.6724 207.194 32.4663 207.139 32.3014 207.016C31.9168 206.728 31.8343 206.096 32.1366 205.712C32.3152 205.479 32.6037 205.369 32.8922 205.369C32.8922 205.369 32.8922 205.369 32.9059 205.369L32.9196 207.194C32.9059 207.194 32.9059 207.194 32.8922 207.194Z" fill="#A8B8BB"/>
<path d="M39.8832 226.297L38.5781 224.664C38.6056 224.664 38.6331 224.664 38.6606 224.664L39.9519 226.242C40.1443 226.064 40.2679 225.734 40.3229 225.295C40.3366 225.652 40.2542 226.078 39.897 226.297H39.8832Z" fill="#FEFEFE"/>
<path d="M38.6646 224.664C38.6371 224.664 38.6096 224.664 38.5822 224.664L38.5547 224.623H38.6371L38.6646 224.664Z" fill="#9FAAAC"/>
<path d="M39.9399 226.242L38.6486 224.664L38.6211 224.623H40.1185L40.2422 224.788C40.2422 224.788 40.3109 225.021 40.3109 225.309C40.2559 225.748 40.146 226.078 39.9399 226.256V226.242Z" fill="#A8B8BB"/>
<path d="M33.0186 217.733L32.1943 216.704L33.0186 217.719V217.733ZM24.7208 207.386L26.232 206.137V206.15L24.707 207.399L24.7208 207.386Z" fill="#FEFEFE"/>
<path d="M33.0165 217.719L32.1923 216.704L24.7188 207.386L26.2437 206.137L33.0028 215.139L33.0165 217.719Z" fill="#A8B8BB"/>
<path d="M37.7025 212.244C37.6063 212.313 37.1942 211.887 36.5347 211.681C35.8753 211.448 35.2846 211.544 35.2571 211.434C35.2022 211.338 35.8616 211.023 36.6584 211.297C37.4552 211.558 37.7987 212.203 37.7025 212.258V212.244Z" fill="#2C3C43"/>
<path d="M38.4816 214.877C38.4129 214.974 37.9321 214.699 37.2864 214.699C36.6407 214.685 36.1599 214.946 36.0912 214.85C36.0087 214.781 36.4896 214.274 37.2864 214.287C38.0832 214.287 38.564 214.795 38.4816 214.877Z" fill="#2C3C43"/>
<path d="M37.0394 217.925C36.9569 217.856 37.3004 217.362 38.001 217.184C38.6879 217.006 39.2512 217.28 39.1962 217.376C39.1688 217.486 38.6605 217.431 38.0972 217.582C37.5202 217.719 37.1218 218.007 37.0394 217.925Z" fill="#2C3C43"/>
<path d="M39.7859 210.282C39.676 210.309 39.4562 209.788 39.0029 209.293C38.5495 208.799 38.0549 208.525 38.0962 208.415C38.1236 208.305 38.7831 208.429 39.3051 209.005C39.8409 209.582 39.8958 210.254 39.7859 210.268V210.282Z" fill="#2C3C43"/>
<path d="M41.6572 208.018C41.616 208.046 41.2726 207.73 40.9017 207.071C40.7231 206.742 40.5307 206.33 40.4071 205.836C40.3384 205.589 40.2834 205.329 40.256 205.068C40.2422 204.931 40.2147 204.793 40.2422 204.601C40.256 204.423 40.4483 204.162 40.6956 204.162C40.9154 204.135 41.1215 204.258 41.2314 204.395C41.355 204.533 41.41 204.67 41.4649 204.793C41.5886 205.04 41.671 205.301 41.7397 205.548C41.8633 206.042 41.9045 206.495 41.8771 206.879C41.8221 207.648 41.6023 208.073 41.5611 208.059C41.4924 208.046 41.616 207.593 41.5886 206.879C41.5748 206.522 41.5199 206.097 41.3825 205.658C41.3138 205.438 41.2176 205.205 41.1077 204.985C40.9978 204.738 40.8604 204.574 40.7368 204.601C40.6818 204.615 40.6681 204.615 40.6544 204.711C40.6406 204.793 40.6544 204.917 40.6681 205.054C40.6956 205.315 40.7368 205.548 40.7917 205.781C40.9017 206.248 41.039 206.646 41.1764 206.975C41.4649 207.634 41.7259 208.005 41.671 208.046L41.6572 208.018Z" fill="#2C3C43"/>
<path d="M41.4236 208.004C41.3824 207.976 41.561 207.537 42.138 207.016C42.4265 206.755 42.7974 206.494 43.2783 206.302C43.5118 206.206 43.7728 206.124 44.0476 206.082C44.3224 206.041 44.6795 205.973 45.0093 206.302C45.1741 206.48 45.1466 206.755 45.0642 206.906C44.9818 207.07 44.8856 207.166 44.8032 207.276C44.6109 207.496 44.391 207.661 44.1712 207.798C43.7179 208.059 43.2508 208.168 42.8661 208.182C42.0831 208.209 41.6572 207.921 41.6846 207.88C41.7121 207.811 42.138 207.99 42.8386 207.894C43.1821 207.839 43.5805 207.715 43.9652 207.468C44.1575 207.345 44.3361 207.194 44.5009 207.016C44.6795 206.823 44.7757 206.618 44.6933 206.563C44.6246 206.467 44.3361 206.425 44.1163 206.48C43.869 206.522 43.6355 206.59 43.4156 206.659C42.976 206.823 42.6188 207.029 42.3303 207.235C41.7533 207.661 41.4923 208.031 41.4374 207.99L41.4236 208.004Z" fill="#2C3C43"/>
<path d="M32.9044 205.178L33.083 224.651L57.3306 224.541C57.1795 222.222 44.6092 217.639 44.6092 217.639L45.0076 205.164L32.8906 205.178H32.9044Z" fill="#42616A"/>
<path d="M37.358 218.46C36.9459 218.46 36.5337 218.158 36.4376 217.747C36.3277 217.307 36.6162 216.813 37.0283 216.649C37.1245 216.594 37.2206 216.58 37.3306 216.58C37.7152 216.58 38.1411 216.882 38.2647 217.239C38.4296 217.692 38.0175 218.323 37.5504 218.446C37.4817 218.46 37.413 218.474 37.3443 218.474L37.358 218.46Z" fill="#A8B8BB"/>
<path d="M33.0822 224.458L33.0547 222.605H33.0684L33.0822 224.458Z" fill="#FEFEFE"/>
<path d="M57.3188 224.433C57.2638 224.199 57.099 223.939 56.8242 223.664C57.0578 223.842 57.305 224.103 57.3325 224.433H57.3188Z" fill="#EDEDEB"/>
<path d="M57.3336 224.624L45.0518 224.596L57.3336 224.541C57.3336 224.5 57.3336 224.473 57.3199 224.432H57.3336C57.3336 224.487 57.3336 224.555 57.3336 224.624Z" fill="#9FAAAC"/>
<path d="M45.0499 224.595L33.084 224.568V224.458L33.0703 222.605L56.3838 223.401C56.3838 223.401 56.6036 223.497 56.8371 223.676C57.0982 223.95 57.2768 224.211 57.3317 224.444C57.3455 224.486 57.3455 224.513 57.3455 224.554L45.0636 224.609L45.0499 224.595Z" fill="#A8B8BB"/>
<path d="M45.0112 217.513C45.0112 217.637 44.4204 217.692 43.8297 218.076C43.239 218.446 42.9367 218.954 42.8268 218.913C42.7169 218.885 42.8955 218.186 43.5962 217.733C44.3105 217.28 45.0249 217.417 44.9974 217.527L45.0112 217.513Z" fill="#2C3C43"/>
<path d="M47.5665 218.555C47.594 218.665 47.0857 218.871 46.6873 219.378C46.2751 219.872 46.179 220.408 46.0553 220.408C45.9454 220.421 45.863 219.735 46.3713 219.118C46.8796 218.5 47.5665 218.445 47.5802 218.555H47.5665Z" fill="#2C3C43"/>
<path d="M49.0198 221.589C48.9099 221.617 48.7451 221.027 49.0473 220.382C49.3496 219.737 49.8991 219.476 49.954 219.572C50.0227 219.668 49.6655 220.025 49.4183 220.56C49.171 221.095 49.1297 221.589 49.0198 221.603V221.589Z" fill="#2C3C43"/>
<path d="M44.7898 214.661C44.7348 214.771 44.1991 214.606 43.5259 214.661C42.8527 214.689 42.3307 214.922 42.2757 214.826C42.207 214.744 42.7153 214.305 43.4984 214.25C44.2815 214.195 44.8447 214.565 44.7898 214.661Z" fill="#2C3C43"/>
<path d="M44.1986 211.791C44.1986 211.845 43.7315 211.914 42.9897 211.791C42.6187 211.722 42.1791 211.612 41.712 211.406C41.4785 211.31 41.2449 211.187 41.0114 211.036C40.9015 210.967 40.7641 210.898 40.6405 210.748C40.5031 210.624 40.4344 210.308 40.5855 210.116C40.7092 209.924 40.929 209.842 41.1076 209.842C41.2861 209.842 41.4373 209.869 41.5609 209.897C41.8357 209.965 42.083 210.048 42.3165 210.157C42.7836 210.363 43.1545 210.638 43.443 210.885C44.0063 211.406 44.1986 211.845 44.1574 211.873C44.1024 211.914 43.8277 211.543 43.2507 211.118C42.9622 210.912 42.605 210.693 42.1654 210.514C41.9456 210.432 41.712 210.35 41.4647 210.308C41.2037 210.24 40.9839 210.24 40.929 210.35C40.9015 210.391 40.9015 210.404 40.9564 210.487C41.0114 210.555 41.1213 210.624 41.2312 210.693C41.451 210.83 41.6571 210.953 41.8769 211.049C42.3028 211.255 42.7012 211.393 43.0584 211.489C43.759 211.681 44.2124 211.708 44.2124 211.777L44.1986 211.791Z" fill="#2C3C43"/>
<path d="M44.0486 211.957C44.0074 211.97 43.7738 211.559 43.7189 210.79C43.6914 210.406 43.7326 209.953 43.8837 209.459C43.9524 209.212 44.0623 208.965 44.186 208.718C44.3234 208.485 44.5019 208.155 44.9553 208.1C45.1889 208.087 45.3949 208.279 45.4636 208.43C45.546 208.594 45.5598 208.732 45.5873 208.869C45.6285 209.157 45.6285 209.431 45.5873 209.692C45.5186 210.214 45.2988 210.639 45.0789 210.955C44.6119 211.586 44.1173 211.723 44.1035 211.682C44.0623 211.627 44.4745 211.394 44.8317 210.79C45.0103 210.488 45.1614 210.104 45.2163 209.651C45.2438 209.431 45.2301 209.184 45.1888 208.951C45.1476 208.69 45.0515 208.485 44.9553 208.512C44.8317 208.512 44.6256 208.704 44.5294 208.91C44.4058 209.13 44.3096 209.349 44.2272 209.569C44.0761 210.008 44.0074 210.42 43.9936 210.776C43.9662 211.49 44.0898 211.929 44.0211 211.943L44.0486 211.957Z" fill="#2C3C43"/>
<path d="M34.9823 92.3848C34.9823 92.3848 31.589 96.0214 29.9129 99.5072C28.2369 102.993 27.1791 111.309 27.1791 111.309C27.1791 111.309 22.4806 121.753 23.195 127.091C23.9094 132.429 28.6902 168.974 28.6902 168.974C28.6902 168.974 28.4567 204.49 31.8363 210.83L32.5919 214.248L46.2612 211.819L46.1788 209.774L49.4072 140.128L57.6363 92.7141L34.9823 92.3985V92.3848Z" fill="#2C3C43"/>
<path d="M65.149 102.746C65.149 102.746 73.3232 147.703 74.0376 155.512C74.7519 163.32 46.9324 204.463 46.9324 204.463L34.2109 191.233L52.4688 157.323L46.534 123.152L54.7905 92.9609L63.4593 93.2629L65.1353 102.759L65.149 102.746Z" fill="#2C3C43"/>
<path d="M29.7227 199.757C29.7227 199.757 29.7227 200.1 29.8188 200.745C29.9013 201.39 30.0661 202.35 30.2859 203.585C30.7393 206.056 31.4811 209.651 32.4703 214.125L32.4977 214.221L32.5939 214.207C36.4543 213.535 41.0978 212.725 46.277 211.819L46.3869 211.806V211.696C46.7716 202.323 47.2249 191.125 47.7058 179.103C48.2141 166.176 48.6812 154.182 49.0658 144.356V144.369C50.0962 136.465 50.9342 129.933 51.525 125.363C51.8134 123.085 52.0333 121.314 52.1844 120.079C52.2531 119.475 52.308 119.023 52.3492 118.693C52.3905 118.378 52.3904 118.213 52.3904 118.213C52.3904 118.213 52.3492 118.378 52.308 118.679C52.2668 119.009 52.1981 119.462 52.102 120.066C51.9371 121.287 51.6898 123.071 51.3738 125.335C50.7556 129.905 49.8764 136.437 48.8048 144.328C48.4064 154.168 47.9118 166.148 47.3898 179.076C46.9227 191.097 46.4831 202.295 46.1122 211.668L46.2221 211.545C41.0566 212.478 36.4131 213.302 32.5527 214.001L32.6626 214.084C31.646 209.61 30.8767 206.028 30.3958 203.558C30.1485 202.323 29.9699 201.376 29.8738 200.717C29.8188 200.388 29.7913 200.141 29.7639 199.976C29.7364 199.812 29.7227 199.729 29.7227 199.729V199.757Z" fill="#42616A"/>
<path d="M13.8359 73.7754C13.8359 73.7754 22.2986 55.5509 24.3043 54.5765C26.3101 53.6022 32.0389 53.2865 32.8219 54.3707L17.6414 76.2044L13.8359 73.7754Z" fill="#42616A"/>
<path d="M14.278 71.3199C13.9071 71.1141 13.4675 71.0592 13.0553 71.1552H13.0416C10.4176 71.8139 0.800969 74.3939 -0.270599 77.1111C-1.50703 80.2675 6.09012 121.382 7.06552 122.494C8.04092 123.606 23.1665 121.739 23.6336 119.983C24.1007 118.226 18.7154 73.9273 18.7154 73.9273L14.278 71.3062V71.3199Z" fill="#42616A"/>
<path d="M2.35293 99.3145C2.35293 99.3145 1.50117 99.3694 0.649411 101.249C-0.202348 103.143 1.2951 118.472 2.43536 120.05C3.56188 121.615 6.85901 121.944 6.85901 121.944L2.36667 99.3008L2.35293 99.3145Z" fill="#42616A"/>
<path d="M19.1948 120.819C19.1948 120.819 19.1673 120.791 19.1123 120.722C19.0574 120.64 18.9887 120.53 18.9063 120.407C18.7277 120.132 18.4941 119.707 18.2194 119.144C17.6561 118.033 16.9967 116.331 16.4884 114.149C15.9801 111.967 15.5954 109.332 15.2932 106.409C14.9772 103.472 14.6337 100.261 14.2766 96.8714C13.5484 90.1058 12.944 83.9715 12.8341 79.4977C12.7791 77.2608 12.8203 75.4631 12.889 74.2142C12.9165 73.5967 12.9577 73.1026 12.9852 72.787C12.9989 72.6361 13.0127 72.5125 13.0264 72.4165C13.0401 72.3341 13.0401 72.293 13.0539 72.293C13.0539 72.293 13.0676 72.3341 13.0539 72.4165C13.0539 72.5125 13.0539 72.6361 13.0401 72.787C13.0264 73.1438 13.0127 73.6104 12.9852 74.2142C12.944 75.4631 12.9302 77.2608 13.0127 79.484C13.1638 83.9303 13.7957 90.0646 14.5376 96.8302C14.8948 100.206 15.2245 103.431 15.5267 106.368C15.8152 109.305 16.1724 111.926 16.667 114.094C17.1478 116.262 17.7798 117.964 18.3018 119.089C18.5628 119.652 18.7826 120.077 18.9475 120.366C19.0162 120.503 19.0711 120.599 19.1261 120.695C19.1673 120.777 19.181 120.805 19.181 120.819H19.1948Z" fill="#2C3C43"/>
<path d="M14.3772 96.4463C14.3772 96.4875 13.6903 96.5973 12.5912 96.7894C11.4785 96.9815 9.95354 97.2697 8.29124 97.6814C6.62893 98.0931 5.14522 98.546 4.07365 98.8891C3.00209 99.2321 2.34266 99.4654 2.32892 99.4243C2.31518 99.4105 2.48004 99.3282 2.76854 99.2047C3.05704 99.0812 3.48292 98.9028 4.00496 98.7107C5.06279 98.3127 6.5465 97.8324 8.22255 97.4207C9.89859 97.009 11.4373 96.7482 12.55 96.5973C13.1133 96.5287 13.5666 96.4738 13.8826 96.46C14.1986 96.4326 14.3772 96.4326 14.3772 96.46V96.4463Z" fill="#2C3C43"/>
<path d="M2.14844 97.6134C2.16218 97.6134 2.17591 97.6957 2.21713 97.8604C2.25834 98.0525 2.29956 98.2995 2.35451 98.5877C2.46441 99.2602 2.61553 100.166 2.80786 101.278C3.19253 103.542 3.74205 106.671 4.42895 110.102C5.11586 113.546 5.8165 116.634 6.35228 118.871C6.61331 119.955 6.81938 120.847 6.97049 121.519C7.03919 121.808 7.09414 122.041 7.13535 122.247C7.16283 122.411 7.17657 122.507 7.17657 122.507C7.16283 122.507 7.13535 122.425 7.0804 122.26C7.02545 122.068 6.95676 121.835 6.87433 121.547C6.69573 120.929 6.44845 120.037 6.15995 118.912C5.58295 116.689 4.85483 113.587 4.15419 110.143C3.46729 106.698 2.94524 103.569 2.61553 101.291C2.45067 100.152 2.32703 99.2327 2.25834 98.5877C2.23087 98.2995 2.20339 98.0525 2.17591 97.8467C2.16218 97.682 2.16218 97.5859 2.16218 97.5859L2.14844 97.6134Z" fill="#2C3C43"/>
<path d="M12.917 79.1143C12.8758 79.1143 12.9032 78.6752 12.9994 77.9753C13.0956 77.2754 13.2742 76.3148 13.5489 75.2855C13.8237 74.2425 14.1397 73.3231 14.4007 72.6644C14.6617 72.0056 14.8541 71.6214 14.8953 71.6351C14.9777 71.6626 14.3595 73.2956 13.8237 75.3541C13.2742 77.4126 12.9994 79.128 12.917 79.1143Z" fill="#2C3C43"/>
<path d="M64.5291 37.5181C64.4467 35.9674 64.2543 28.447 64.1582 27.2943C64.0345 25.7435 63.4026 24.2065 62.2623 23.1498C61.1221 22.0931 59.3636 21.6403 57.9623 22.3264C57.0419 22.5597 56.3137 23.2734 56.0665 24.1928C52.893 35.4596 53.4013 47.4538 52 59.1049C56.1352 59.7773 61.7128 59.5028 65.9029 59.2833C65.9029 49.9789 65.1198 47.5636 64.5428 37.5181H64.5291Z" fill="#2C3C43"/>
<path d="M64.286 55.9614C64.2722 55.9614 64.2585 55.8516 64.2585 55.6595C64.2448 55.4262 64.231 55.1517 64.2173 54.7949C64.1898 54.0127 64.1623 52.9285 64.1211 51.6111C64.0662 48.8939 63.9837 45.2023 63.9013 41.1265C63.8738 39.0817 63.8464 37.133 63.8189 35.349C63.8051 34.457 63.7914 33.6198 63.7914 32.8239C63.7914 32.0417 63.7639 31.3006 63.6403 30.6556C63.4205 29.3382 62.6649 28.4599 62.0192 28.1031C61.3735 27.7326 60.9202 27.8012 60.9339 27.7737C60.9339 27.7737 60.9614 27.76 61.0163 27.76C61.0713 27.76 61.14 27.7463 61.2499 27.76C61.4559 27.7737 61.7444 27.8286 62.0879 28.007C62.4313 28.1854 62.8023 28.4736 63.132 28.9265C63.4617 29.3656 63.709 29.9557 63.8464 30.6144C63.9837 31.2869 64.0112 32.0279 64.0387 32.8102C64.0524 33.6061 64.0799 34.4432 64.0936 35.3353C64.1211 37.1193 64.1623 39.068 64.2036 41.1128C64.2585 45.1886 64.3135 48.8801 64.3409 51.5974C64.3409 52.9148 64.3547 53.9852 64.3547 54.7812C64.3547 55.138 64.3409 55.4124 64.3409 55.6457C64.3409 55.8379 64.3272 55.9476 64.3135 55.9476L64.286 55.9614Z" fill="#42616A"/>
<path d="M60.5199 51.6955C60.5062 51.6955 60.4787 51.4485 60.465 51.0231C60.4512 50.584 60.4375 49.9527 60.4375 49.1705C60.4375 47.606 60.465 45.4514 60.5337 43.0636C60.6024 40.7032 60.6573 38.5761 60.6985 36.9567C60.726 36.2157 60.7397 35.5981 60.7535 35.1041C60.7672 34.6649 60.7947 34.4316 60.8084 34.4316C60.8222 34.4316 60.8496 34.6787 60.8634 35.1041C60.8771 35.5432 60.8909 36.1745 60.8909 36.9567C60.8909 38.5212 60.8634 40.6757 60.7947 43.0636C60.726 45.424 60.671 47.5511 60.6298 49.1705C60.6024 49.9115 60.5886 50.5291 60.5749 51.0231C60.5611 51.4622 60.5337 51.6955 60.5199 51.6955Z" fill="#42616A"/>
<path d="M33.2392 54.5781C32.7034 54.5781 22.5922 55.2917 20.2567 66.1057C17.9075 76.9196 17.2344 92.0701 17.2344 92.0701L28.1973 90.9723L33.2529 54.5781H33.2392Z" fill="#019788"/>
<path d="M38.197 52.1897L39.983 48.9098L55.4932 48.4844L56.5373 51.2839L65.6869 54.5775L64.9725 95.1161L71.7591 132.526C71.7591 132.526 71.6904 137.905 53.6111 139.634L52.1824 120.079L43.1565 119.873L43.4037 138.976C43.4037 138.976 27.4676 138.715 22.412 135.119C22.412 135.119 20.8871 116.922 25.2283 103.817C29.0337 92.344 30.5174 89.3798 30.5174 89.3798L30.8472 54.9892L38.197 52.2034V52.1897Z" fill="#019788"/>
<path d="M27.0831 98.3411L24.0195 95.0887C24.3218 93.8261 24.6103 92.5499 24.9125 91.2873L28.1822 90.958L30.6825 72.9805L30.5314 89.3524C30.5314 89.3524 29.5422 91.3422 27.0969 98.3411H27.0831Z" fill="#ABAEAF"/>
<path d="M24.9102 91.3023C26.8472 82.9997 28.798 74.6971 30.7488 66.3945L30.6801 72.9954L28.1798 90.9729L24.9102 91.3023Z" fill="#CC5F52"/>
<path d="M27.1919 98.4655L27.082 98.3421C29.5274 91.3432 30.5165 89.3533 30.5165 89.3533L30.6677 72.9813L30.7364 66.3805C31.6156 62.5929 32.5086 58.8189 33.3878 55.0312C35.6134 60.5068 36.6987 66.655 35.2012 72.3776C34.1434 76.426 31.8354 80.2409 32.0003 84.4265C32.0827 86.2792 32.6459 88.077 32.6597 89.9297C32.6872 93.4977 30.4479 96.9971 27.1782 98.4517L27.1919 98.4655Z" fill="#019788"/>
<path d="M63.7636 54.0547C67.4866 54.7409 70.4128 58.7069 71.2508 62.9611C71.7454 65.445 73.2016 77.4529 73.2016 77.4529L73.9984 81.8443C73.9984 81.8443 74.6716 96.9674 71.4569 98.6554C67.7064 100.632 65.5495 98.4633 64.3268 96.8851C63.0904 95.2932 61.7578 84.987 61.7578 84.987L63.1728 60.3262L63.7636 54.0547Z" fill="#019788"/>
<path d="M65.5337 60.123C65.5475 60.123 65.5337 60.274 65.4925 60.5622C65.4513 60.8641 65.3826 61.2758 65.3139 61.7973C65.1491 62.8951 64.9018 64.4459 64.6133 66.3397C64.311 68.261 63.9401 70.539 63.5417 73.0641C63.3356 74.3266 63.1158 75.6578 62.896 77.0301C62.6625 78.4025 62.3877 79.8297 62.2778 81.2844C62.2091 82.1489 62.1954 82.9998 62.2641 83.8094V83.7957C63.4318 88.9831 64.5171 93.5804 65.3277 96.8603C65.7398 98.4796 66.0832 99.7971 66.3168 100.73C66.4267 101.169 66.5229 101.512 66.5916 101.773C66.6465 102.007 66.674 102.144 66.674 102.144C66.6602 102.144 66.619 102.02 66.5503 101.787C66.4679 101.526 66.358 101.183 66.2344 100.758C65.9733 99.852 65.5887 98.5483 65.1628 96.9152C64.2973 93.6353 63.1708 89.0517 62.003 83.8643V83.8506V83.8369C61.9344 83.0135 61.9344 82.1352 62.0168 81.2706C62.1404 79.7885 62.4152 78.3613 62.6487 76.989C62.8823 75.6166 63.1021 74.2855 63.3082 73.0229C63.734 70.4978 64.1187 68.2335 64.4484 66.3122C64.7781 64.4184 65.0529 62.8814 65.2452 61.7836C65.3414 61.2758 65.4238 60.8641 65.4788 60.5622C65.5337 60.2877 65.5749 60.1368 65.5749 60.1368L65.5337 60.123Z" fill="#2C3C43"/>
<path d="M25.7461 57.1303L28.5899 95.089C28.5899 95.089 33.9065 70.8811 34.1263 64.6919C34.3461 58.5027 33.0547 54.1387 33.0547 54.1387C33.0547 54.1387 27.903 53.329 25.7461 57.1303Z" fill="#42616A"/>
<path d="M24.1289 54.7002C24.1426 54.6865 24.5273 54.81 25.0768 55.2217C25.3516 55.4276 25.5989 55.7981 25.7363 56.2235C25.8874 56.6489 25.9698 57.1293 26.0248 57.637C26.1209 58.6388 26.1072 59.5583 26.1072 60.217C26.1072 60.8757 26.1072 61.2737 26.066 61.2874C26.0248 61.2874 25.9561 60.8894 25.9149 60.2307C25.8599 59.572 25.8324 58.6663 25.75 57.6782C25.6676 56.7038 25.434 55.7981 24.9532 55.3864C24.4724 54.961 24.1014 54.7551 24.1426 54.714L24.1289 54.7002Z" fill="#2C3C43"/>
<path d="M43.8279 56.0732C43.8141 56.0869 43.7042 55.9634 43.5119 55.7439C43.3196 55.5243 43.0311 55.1812 42.6876 54.7558L42.8525 54.7283C42.4678 55.8399 41.8771 57.473 41.2039 59.2845L41.1077 59.5452L40.9566 59.3256C40.8742 59.2021 40.778 59.0786 40.7093 58.9551C40.201 58.1043 39.8851 57.226 39.5966 56.43C39.3081 55.6341 39.0882 54.9205 38.8822 54.3166C38.6761 53.7128 38.5112 53.2325 38.4013 52.8894C38.2777 52.5601 38.209 52.3679 38.2365 52.3679C38.2502 52.3542 38.3601 52.5326 38.5112 52.8482C38.6624 53.1776 38.8547 53.6442 39.0882 54.248C39.3218 54.8656 39.5691 55.5655 39.8576 56.3477C40.1598 57.1299 40.4758 57.9945 40.9704 58.8179C41.039 58.9414 41.1352 59.0512 41.2039 59.1747L40.9566 59.2158C41.6298 57.4044 42.248 55.785 42.6876 54.6872L42.7426 54.5362L42.8387 54.6734C43.4844 55.538 43.8691 56.0869 43.8416 56.1007L43.8279 56.0732Z" fill="#2C3C43"/>
<path d="M56.1495 53.4668C56.1632 53.4805 56.0945 53.6589 55.9571 53.9746C55.8198 54.2902 55.6137 54.7568 55.3389 55.3194C55.0642 55.8821 54.7344 56.5408 54.3498 57.2819C53.9514 58.0092 53.5255 58.8189 52.9485 59.6011L52.7699 59.8344L52.7012 59.5462L52.6737 59.4227C52.2341 57.5563 51.8495 55.8546 51.5884 54.6196L51.767 54.6607C51.3137 55.1685 50.8054 55.3743 50.5306 55.5939C50.2421 55.7998 50.1047 55.9507 50.091 55.937C50.0772 55.9233 50.1871 55.7449 50.4619 55.5116C50.7367 55.2645 51.2038 55.0175 51.6159 54.5372L51.7395 54.3863L51.7945 54.5784C52.1105 55.7998 52.5226 57.4877 52.9622 59.3678L52.9897 59.4913L52.7424 59.4364C53.3057 58.6816 53.7316 57.8857 54.1437 57.1721C54.5284 56.4585 54.8718 55.8135 55.1878 55.2508C55.4626 54.7431 55.6961 54.3176 55.8884 53.9471C56.0533 53.6452 56.1632 53.4805 56.1769 53.4805L56.1495 53.4668Z" fill="#2C3C43"/>
<path d="M44.1024 55.9228C44.1024 55.9228 42.6049 75.4648 42.2065 77.9761C41.8081 80.4875 43.1545 119.873 43.1545 119.873L51.9605 120.436C51.9605 120.436 52.0567 87.9255 51.9605 87.6922C51.8644 87.4726 52.0018 64.7331 52.0018 64.7331L49.996 55.6758L46.589 59.7104L44.0886 55.9228H44.1024Z" fill="#FEFEFE"/>
<path d="M53.9254 74.4905C53.9391 74.5317 53.6231 74.6003 53.4583 75.0257C53.3896 75.2315 53.3621 75.506 53.4995 75.7256C53.6231 75.9589 53.9391 76.0687 54.2551 76.0138C54.571 75.9589 54.8183 75.7393 54.8595 75.4786C54.9008 75.2178 54.7909 74.9708 54.6397 74.8061C54.3375 74.463 54.0078 74.5179 54.0078 74.4768C54.0078 74.463 54.0765 74.4219 54.2276 74.4219C54.3787 74.4219 54.5848 74.4905 54.7771 74.6689C54.9694 74.8473 55.148 75.1492 55.1068 75.5197C55.0656 75.904 54.7084 76.2333 54.2963 76.302C53.8979 76.3843 53.4445 76.2059 53.2659 75.8628C53.0873 75.5335 53.156 75.1767 53.2659 74.9571C53.3896 74.7238 53.5544 74.5866 53.6918 74.5317C53.8292 74.4768 53.9116 74.4905 53.9116 74.5042L53.9254 74.4905Z" fill="#2C3C43"/>
<path d="M53.9254 91.5471C53.9391 91.5883 53.6231 91.6569 53.4583 92.0823C53.3896 92.2881 53.3621 92.5626 53.4995 92.7959C53.6231 93.0292 53.9391 93.139 54.2551 93.0841C54.571 93.0292 54.8183 92.8096 54.8595 92.5489C54.9008 92.2881 54.7909 92.0411 54.6397 91.8764C54.3375 91.5334 54.0078 91.5883 54.0078 91.5471C54.0078 91.5334 54.0765 91.4922 54.2276 91.4922C54.3787 91.4922 54.5848 91.5608 54.7771 91.7392C54.9694 91.9176 55.148 92.2195 55.1068 92.5901C55.0656 92.9743 54.7084 93.3037 54.2963 93.3723C53.8979 93.4546 53.4445 93.2762 53.2659 92.9331C53.0873 92.6038 53.156 92.247 53.2659 92.0274C53.3896 91.7941 53.5544 91.6569 53.6918 91.602C53.8292 91.5471 53.9116 91.5608 53.9116 91.5745L53.9254 91.5471Z" fill="#2C3C43"/>
<path d="M54.7066 112.176C54.7203 112.217 54.4044 112.286 54.2395 112.711C54.1708 112.917 54.1433 113.192 54.2807 113.411C54.4044 113.644 54.7203 113.754 55.0363 113.699C55.3523 113.644 55.5996 113.425 55.6408 113.164C55.682 112.903 55.5721 112.656 55.421 112.492C55.1187 112.149 54.789 112.203 54.789 112.162C54.789 112.149 54.8577 112.107 55.0088 112.107C55.1462 112.107 55.366 112.176 55.5584 112.354C55.7507 112.533 55.9293 112.835 55.8881 113.205C55.8469 113.59 55.4897 113.919 55.0775 113.988C54.6791 114.07 54.2258 113.891 54.0472 113.548C53.8686 113.219 53.9373 112.862 54.0472 112.643C54.1708 112.409 54.3357 112.272 54.4731 112.217C54.6104 112.162 54.6929 112.176 54.6929 112.19L54.7066 112.176Z" fill="#2C3C43"/>
<path d="M63.4197 88.9545C63.1312 87.6919 62.8289 86.3745 62.513 85.0022C62.4992 84.7003 62.513 84.3984 62.5542 84.0553C62.7603 82.3673 63.3098 80.35 63.5433 78.6757C63.8593 76.5075 63.7082 74.298 63.667 72.1023C64.0104 69.9615 64.3264 68.0265 64.5874 66.3522C64.6698 65.8307 64.7523 65.3367 64.821 64.8701C64.9446 64.6094 65.082 64.3486 65.2331 64.0879C65.604 65.9268 65.2743 67.8343 65.398 69.7007C65.5079 71.2652 65.92 72.8022 66.1123 74.3529C66.7305 79.3207 65.0682 84.2337 63.4059 88.9545H63.4197ZM63.6944 70.579C63.7357 68.8636 63.9417 67.1207 64.5462 65.5288C64.505 65.7759 64.4638 66.0366 64.4088 66.2973C64.189 67.5736 63.9555 69.0145 63.6807 70.5653L63.6944 70.579Z" fill="#019788"/>
<path d="M63.3379 89.1889C62.9395 87.1715 62.5548 86.1696 62.5273 84.9894C62.8296 86.3618 63.1318 87.6792 63.4341 88.9417C63.4066 89.0241 63.3791 89.1065 63.3516 89.1889H63.3379ZM63.6951 72.0895C63.6951 71.8014 63.6951 71.5269 63.6951 71.2387C63.6951 71.0191 63.6951 70.7858 63.7088 70.5663C63.9698 69.0018 64.2171 67.5746 64.4369 66.2983C64.4781 66.0376 64.5331 65.7768 64.5743 65.5298C64.6567 65.2965 64.7529 65.0769 64.8628 64.8438C64.7941 65.3103 64.7117 65.8043 64.6293 66.3258C64.3682 68 64.0523 69.9487 63.7088 72.0758L63.6951 72.0895Z" fill="#273035"/>
<path d="M63.1532 70.3574C65.2139 76.0938 64.3759 82.8044 60.9414 87.8546L63.1532 70.3574Z" fill="#019788"/>
<path d="M60.9551 87.8565C60.9139 87.8291 61.4909 86.9782 62.1916 85.4961C62.5488 84.7551 62.906 83.8356 63.2357 82.8063C63.5379 81.7634 63.8127 80.5969 63.9775 79.3618C64.1286 78.113 64.1561 76.9191 64.1149 75.8349C64.0599 74.7508 63.9363 73.7764 63.7714 72.9667C63.4555 71.3474 63.0983 70.3868 63.1532 70.373C63.167 70.373 63.2631 70.6063 63.428 71.0455C63.5104 71.2651 63.6066 71.5258 63.689 71.8552C63.7714 72.1708 63.8951 72.5276 63.9638 72.9393C64.1561 73.749 64.2935 74.7371 64.3622 75.8349C64.4171 76.9328 64.4034 78.1542 64.2385 79.4167C64.0737 80.6792 63.7852 81.8594 63.4692 82.9161C63.1258 83.9591 62.7411 84.8786 62.3564 85.6196C62.1778 85.9902 61.9855 86.3195 61.8206 86.6077C61.6558 86.8959 61.5047 87.1292 61.3673 87.3213C61.1063 87.7056 60.9551 87.9114 60.9414 87.8977L60.9551 87.8565Z" fill="#2C3C43"/>
<path d="M36.5456 96.1873C36.5181 96.2147 36.1197 95.9128 35.5152 95.3502C34.9108 94.8012 34.1139 93.9915 33.3171 93.0309C32.5203 92.0703 31.8609 91.1508 31.435 90.4509C30.9954 89.7648 30.7756 89.3119 30.8031 89.2845C30.8443 89.257 31.1328 89.6824 31.5999 90.3412C32.0807 90.9999 32.7401 91.9056 33.5369 92.8525C34.3338 93.7994 35.1031 94.6228 35.6663 95.2129C36.2296 95.803 36.5868 96.1598 36.5593 96.1873H36.5456Z" fill="#2C3C43"/>
<path d="M33.0151 96.7486C32.9876 96.7624 32.7678 96.3781 32.4656 95.7331C32.1771 95.0881 31.8199 94.1824 31.5039 93.1394C31.1879 92.1102 30.9819 91.1496 30.8582 90.4497C30.7346 89.7498 30.7071 89.3106 30.7483 89.3106C30.8308 89.2969 31.1467 91.0123 31.7649 93.0571C32.3832 95.1019 33.0838 96.7075 33.0151 96.7349V96.7486Z" fill="#2C3C43"/>
<path d="M50.2437 86.5535C50.2162 86.5947 49.914 86.3888 49.3919 86.1692C48.8699 85.9634 48.0868 85.785 47.2213 85.8399C46.3558 85.9085 45.614 86.183 45.1194 86.4711C44.6248 86.7593 44.3638 87.0064 44.3226 86.9652C44.2951 86.9515 44.5149 86.6496 45.0095 86.3065C45.4903 85.9634 46.2871 85.634 47.1939 85.5654C48.1143 85.4968 48.9386 85.7164 49.4606 85.9908C49.9964 86.2516 50.2574 86.526 50.23 86.5535H50.2437Z" fill="#2C3C43"/>
<path d="M20.4995 85.2776C20.4995 85.2776 16.5704 89.5592 16.8589 92.5372C17.1611 95.5289 18.5487 102.102 22.2442 101.896C25.926 101.691 29.2644 95.7759 29.7727 91.0688C30.2672 86.3617 29.7727 75.3145 29.7727 75.3145L24.5247 76.4947L20.5132 85.2638L20.4995 85.2776Z" fill="#F9B39B"/>
<path d="M12.6868 57.8725C15.4069 61.3445 22.1523 69.7294 22.1523 69.7294L28.4993 68.1238C28.9664 68.014 29.3098 67.6161 29.3648 67.1495C29.406 66.8475 29.3236 66.5319 29.1313 66.2849L20.229 55.0318C19.5421 54.1672 18.3881 53.8379 17.344 54.2358L13.2775 55.7591C12.412 56.0885 12.1098 57.1589 12.6731 57.8862L12.6868 57.8725Z" fill="#2C3C43"/>
<path d="M28.6874 66.6945C28.6736 66.7082 28.4538 66.5023 28.0692 66.1044C27.6982 65.7064 27.1487 65.1437 26.503 64.4164C25.1979 62.9617 23.4669 60.9033 21.681 58.5291C21.2413 57.939 20.8017 57.3489 20.4033 56.7863C20.0049 56.2236 19.6065 55.6609 19.0707 55.3728C18.5349 55.0571 17.9305 55.1944 17.4084 55.3728C16.8726 55.5512 16.3643 55.7296 15.8972 55.8805C15.0043 56.1687 14.2761 56.4157 13.7129 56.6079C13.1908 56.7725 12.9023 56.8549 12.9023 56.8412C12.9023 56.8274 13.1771 56.7039 13.6854 56.5118C14.2487 56.3059 14.9631 56.0315 15.8423 55.7021C16.3094 55.5374 16.804 55.3453 17.3397 55.1532C17.6145 55.0571 17.903 54.9611 18.2327 54.9336C18.5624 54.9062 18.9059 54.9748 19.2081 55.1395C19.8263 55.4688 20.2385 56.0589 20.6369 56.6216C21.049 57.1842 21.4749 57.7606 21.9145 58.3644C23.6867 60.7386 25.404 62.8108 26.6541 64.2929C27.2586 65.0065 27.7669 65.5966 28.1516 66.0358C28.5088 66.4475 28.7011 66.6808 28.6874 66.6945Z" fill="#42616A"/>
<path d="M16.2824 56.705C16.5297 56.5815 16.8731 56.6913 16.9968 56.952C17.1204 57.199 17.0105 57.5421 16.7495 57.6656C16.5022 57.7891 16.1588 57.6793 16.0351 57.4186C15.9115 57.1716 16.0214 56.8285 16.2824 56.705Z" fill="#FEFEFE"/>
<path d="M21.7213 64.2939L18.7814 64.788L17.696 65.7486C17.3938 66.0231 17.229 66.4211 17.2839 66.819C17.3389 67.2033 17.5037 67.6973 17.9571 68.2463C18.6577 69.0971 19.2347 69.5225 19.2347 69.5225C19.2347 69.5225 18.2044 71.1968 19.798 72.0339C19.798 72.0339 19.6881 73.763 21.3641 73.9414C21.3641 73.9414 21.8587 75.5882 23.1088 75.6706L24.414 76.9605L24.0156 77.7565L29.8405 77.9349C29.8405 77.9349 29.8817 74.7511 29.6069 73.2827C29.3459 71.8829 29.1536 71.4438 29.1536 71.4438C29.4558 69.797 28.2194 69.1245 28.0408 69.2343C28.0408 69.2343 30.8159 68.507 30.4587 66.5995L27.7935 67.2856L22.9028 68.3012L26.035 66.2015C26.1999 66.0643 26.3373 65.8996 26.4472 65.7212C26.7082 65.2958 27.1066 64.5272 26.7769 64.0881C26.6258 63.896 22.7791 65.5153 22.7791 65.5153L20.4024 67.7248L19.6606 66.6681C19.6606 66.6681 22.0922 66.1603 21.7076 64.3214L21.7213 64.2939Z" fill="#F9B39B"/>
<path d="M28.4449 69.2602C28.4586 69.3425 27.4145 69.4935 26.1781 69.8503C24.9417 70.2071 23.98 70.6325 23.9388 70.5639C23.8976 70.4953 24.8318 69.9463 26.0957 69.5895C27.3596 69.219 28.4449 69.1916 28.4449 69.2602Z" fill="#F69775"/>
<path d="M27.0941 74.2979C27.0666 74.2568 27.5474 73.9686 28.0695 73.255L28.1656 73.1177L28.2343 73.2687C28.3168 73.4608 28.4816 73.6255 28.7152 73.7216C28.935 73.8176 29.2235 73.8313 29.4158 73.6804C29.512 73.598 29.5394 73.5157 29.512 73.3785C29.4845 73.2138 29.457 73.0628 29.4295 72.8982C29.3608 72.5688 29.3334 72.212 29.2235 71.9101C29.1136 71.6082 28.8663 71.4435 28.564 71.4435C28.2618 71.4298 27.9733 71.5258 27.6711 71.6082C27.1078 71.7454 26.572 71.8826 26.1049 71.9924C25.2119 72.1983 24.6487 72.3218 24.6487 72.2806C24.635 72.2394 25.1845 72.061 26.0637 71.8003C26.5308 71.6631 27.0528 71.5121 27.6024 71.3611C27.8909 71.2788 28.2068 71.1553 28.5778 71.169C28.7564 71.169 28.9624 71.2102 29.1273 71.3337C29.2922 71.4435 29.4158 71.6219 29.4845 71.814C29.6219 72.1845 29.6356 72.5276 29.6906 72.857C29.718 73.0217 29.7455 73.1863 29.7592 73.351C29.8005 73.5294 29.718 73.7902 29.5532 73.8862C29.2372 74.1195 28.8663 74.0646 28.5915 73.9411C28.3168 73.8176 28.1244 73.5843 28.0283 73.351L28.1931 73.3785C27.9046 73.7353 27.6161 73.9686 27.41 74.1195C27.204 74.2568 27.0666 74.3117 27.0666 74.2979H27.0941Z" fill="#F69775"/>
<path d="M21.9453 66.2142C22.0002 66.2691 21.3683 66.9965 20.6402 67.9159C19.8983 68.8354 19.3351 69.6176 19.2801 69.5764C19.2114 69.5353 19.6785 68.6844 20.4204 67.7375C21.1622 66.7906 21.8903 66.1456 21.9453 66.2005V66.2142Z" fill="#F69775"/>
<path d="M23.1563 68.219C23.1838 68.3013 22.5518 68.4934 22.0985 69.111C21.6451 69.7285 21.6588 70.3872 21.5764 70.3872C21.5489 70.3872 21.4802 70.2226 21.494 69.9481C21.5077 69.6736 21.6176 69.2894 21.8649 68.9463C22.1122 68.6032 22.4419 68.3699 22.7029 68.2739C22.964 68.1778 23.1426 68.1778 23.1426 68.2052L23.1563 68.219Z" fill="#F69775"/>
<path d="M54.5984 25.0989C54.145 23.9187 54.3236 22.6012 54.145 21.3661C53.7603 18.6215 51.5485 16.412 48.9795 15.3416C46.6028 14.3398 43.6903 14.5594 40.8191 15.4788C38.8545 16.1101 36.9999 17.2217 35.681 18.8136C33.9363 20.927 33.3181 23.9187 34.0874 26.5535L48.1552 24.5225C49.4741 25.6066 50.8204 26.7182 52.414 27.3358C52.8811 27.5142 53.3894 27.6514 53.884 27.5691C54.3785 27.4867 54.8594 27.1574 54.983 26.6633C55.1067 26.1281 54.7907 25.6066 54.5984 25.0989Z" fill="#2C3C43"/>
<path d="M45.8454 14.6293C48.9228 14.1078 51.6292 15.3017 54.2256 17.0308C56.8221 18.7737 58.7729 21.3811 59.8995 24.3042C61.0809 27.3645 61.3832 31.7971 60.4627 34.9535C59.5423 38.1098 57.3167 40.4153 54.4317 41.4309C50.2004 42.9267 45.2959 42.7483 41.724 40.0311C38.1384 37.3139 36.1051 32.8401 35.9403 28.3526C35.8304 25.2648 36.5722 22.1085 38.3032 19.5422C40.0342 16.9759 42.7956 15.0684 45.8592 14.6155L45.8454 14.6293Z" fill="#2C3C43"/>
<path d="M40.9575 48.0993L41.0674 50.6107L46.5901 60.3817L54.6406 50.1029L54.9153 24.4404C54.8879 23.2464 53.9674 22.2721 52.7722 22.1898L40.4904 19.5686C36.575 19.3079 34.1709 24.1934 34.0747 28.1045C33.9648 32.4548 34.006 37.7657 34.638 40.9907C35.9156 47.4681 40.9437 48.0993 40.9437 48.0993H40.9575Z" fill="#F9B39B"/>
<path d="M35.8477 33.4975C35.8477 33.9366 36.2186 34.3071 36.6857 34.3071C37.1528 34.3071 37.5237 33.964 37.5237 33.5249C37.5237 33.0858 37.1528 32.7152 36.6857 32.7152C36.2186 32.7015 35.8477 33.0583 35.8477 33.4975Z" fill="#2C3C43"/>
<path d="M35.3384 30.6156C35.4483 30.7253 36.0665 30.2313 36.9595 30.1901C37.8525 30.149 38.5394 30.5881 38.6218 30.4646C38.663 30.4097 38.5531 30.2176 38.2646 30.0254C37.9761 29.8333 37.4815 29.6412 36.9183 29.6686C36.355 29.6961 35.8879 29.9157 35.6269 30.1352C35.3521 30.3548 35.2697 30.5607 35.3247 30.6018L35.3384 30.6156Z" fill="#2C3C43"/>
<path d="M44.0078 33.3471C44.0078 33.7862 44.3787 34.1567 44.8458 34.1567C45.2992 34.1705 45.6839 33.8137 45.6839 33.3745C45.6839 32.9354 45.3129 32.5648 44.8458 32.5648C44.3787 32.5511 44.0078 32.9079 44.0078 33.3471Z" fill="#2C3C43"/>
<path d="M43.8841 30.4105C43.994 30.5203 44.6122 30.0262 45.5052 29.9851C46.3982 29.9439 47.0851 30.383 47.1675 30.2595C47.2087 30.2046 47.0988 30.0125 46.8103 29.8204C46.5218 29.6282 46.0272 29.4361 45.464 29.4636C44.9007 29.491 44.4336 29.7106 44.1726 29.9302C43.9116 30.1497 43.8154 30.3556 43.8704 30.3968L43.8841 30.4105Z" fill="#2C3C43"/>
<path d="M41.1786 37.2295C41.1786 37.1746 40.6154 37.106 39.7086 37.0237C39.4751 37.0099 39.2553 36.9688 39.2141 36.8178C39.1591 36.6531 39.2415 36.4061 39.3377 36.1317C39.53 35.569 39.7361 34.9789 39.9559 34.3614C40.8077 31.8363 41.4122 29.7641 41.316 29.7366C41.2198 29.7092 40.4368 31.7265 39.5987 34.2378C39.3927 34.8554 39.2003 35.4592 39.008 36.0219C38.9256 36.2826 38.7882 36.5845 38.9256 36.9276C38.9943 37.0923 39.1729 37.2158 39.3102 37.2432C39.4614 37.2844 39.585 37.2844 39.7086 37.2844C40.6154 37.2981 41.1923 37.2844 41.1923 37.2295H41.1786Z" fill="#2C3C43"/>
<path d="M40.957 48.1006C40.957 48.1006 45.3532 48.0045 49.5983 45.2324C49.5983 45.2324 47.5788 49.816 41.0257 49.4592L40.957 48.1006Z" fill="#F69775"/>
<path d="M41.8651 39.1667C42.2498 38.7687 42.607 38.6727 43.1703 38.7138C43.5687 38.7413 43.7473 38.9334 44.0083 39.2491C44.2556 39.551 44.2968 40.1822 44.0907 40.4842C43.8572 40.841 43.3626 40.937 42.923 40.8272C42.4834 40.7175 42.1811 40.5939 41.8239 40.3195C41.7278 40.2509 41.6591 40.0725 41.6179 39.9627C41.5217 39.5921 41.7964 39.2491 41.8651 39.1667Z" fill="#F69775"/>
<path d="M43.9355 28.2959C44.0317 28.5429 44.9246 28.3919 45.9825 28.4743C47.0403 28.5429 47.9058 28.8173 48.0432 28.5978C48.0981 28.488 47.947 28.2684 47.5898 28.0488C47.2464 27.8293 46.6831 27.6234 46.0512 27.5685C45.4192 27.5274 44.8422 27.6509 44.4575 27.8155C44.0729 27.9802 43.8943 28.1861 43.9355 28.2959Z" fill="#2C3C43"/>
<path d="M35.4643 26.6771C35.6292 26.8693 36.2474 26.636 36.9893 26.6085C37.7311 26.5399 38.3768 26.6909 38.5142 26.4713C38.5691 26.3615 38.473 26.1694 38.1845 25.9772C37.9097 25.7988 37.4426 25.6616 36.9343 25.6891C36.426 25.7302 35.9864 25.9223 35.7391 26.1419C35.4781 26.3615 35.4094 26.5811 35.4781 26.6771H35.4643Z" fill="#2C3C43"/>
<path d="M56.8552 23.2058C55.5913 19.473 50.0274 14.368 46.0983 14.7248L39.875 18.6085C40.3009 20.7493 41.9907 22.5745 44.0788 23.1783C45.1916 23.4939 46.538 23.5626 47.2249 24.5095C47.9255 25.4701 47.5546 26.8973 48.2003 27.8991C49.0932 29.2714 51.4837 29.1617 52.1568 30.6575C52.4591 31.3162 52.3217 32.0984 52.6239 32.7572C53.0361 33.6217 55.2616 34.6921 56.1683 34.3765C57.075 34.0746 57.0476 32.5101 57.3361 31.7005C57.8169 30.3007 57.5971 29.5871 57.4185 28.8049C56.9926 26.9659 57.4597 25.0035 56.8552 23.2195V23.2058Z" fill="#2C3C43"/>
<path d="M53.4886 35.186C53.4748 34.7057 53.9831 33.5393 54.464 33.4432C55.7416 33.1962 58.0496 33.2099 58.187 36.4623C58.3793 40.8949 53.887 40.1813 53.8732 40.0578C53.8595 39.9617 53.5435 36.8603 53.4886 35.186Z" fill="#F9B39B"/>
<path d="M55.1641 38.3141C55.1778 38.3004 55.2465 38.369 55.3701 38.4239C55.5075 38.4788 55.7273 38.5062 55.9471 38.4102C56.4142 38.218 56.7714 37.4495 56.7577 36.6536C56.7577 36.2556 56.6478 35.8714 56.4967 35.5557C56.3455 35.2401 56.1257 35.0205 55.8922 34.9931C55.6586 34.9519 55.4938 35.1028 55.4388 35.2264C55.3839 35.3499 55.4113 35.4459 55.3976 35.4459C55.3839 35.4597 55.3014 35.3773 55.3289 35.1852C55.3427 35.0891 55.3976 34.9931 55.4938 34.897C55.5899 34.8009 55.7548 34.7598 55.9197 34.7598C56.2631 34.7735 56.5791 35.0754 56.7577 35.4185C56.95 35.7616 57.0736 36.187 57.0874 36.6399C57.1011 37.5319 56.6752 38.3964 56.0433 38.6023C55.7411 38.6983 55.4663 38.616 55.3289 38.5199C55.1915 38.4102 55.1641 38.3141 55.1778 38.3141H55.1641Z" fill="#F69775"/>
<path d="M60.8801 29.1188C60.9076 29.1188 61.0312 28.6247 61.0449 27.7876C61.0587 26.9505 60.935 25.7977 60.5366 24.5901C60.1245 23.3824 59.52 22.3806 59.0117 21.7357C58.4897 21.0769 58.0913 20.7476 58.0775 20.775C57.9951 20.8299 59.4788 22.312 60.2619 24.6862C61.0724 27.0603 60.7839 29.1325 60.8801 29.1325V29.1188Z" fill="#F3786E"/>
<path d="M41.1638 17.2781C40.7517 19.0896 38.0041 21.3951 36.7951 22.7949C34.4871 25.4709 34.0613 25.8689 34.075 33.9519C32.9897 31.8797 32.1379 28.2567 32.2204 25.9238C32.3028 23.5908 33.1683 21.2441 34.8031 19.5699C36.4379 17.8957 38.8558 16.935 41.1638 17.2781Z" fill="#2C3C43"/>
<path d="M59.1095 23.1506C59.1095 23.1644 58.8485 23.233 58.3539 23.3428C58.1066 23.3977 57.8044 23.4526 57.461 23.4937C57.1038 23.5349 56.7054 23.6035 56.2657 23.631C55.3728 23.7133 54.3012 23.727 53.1197 23.6584C51.9383 23.5761 50.6331 23.3977 49.3006 23.0683C47.968 22.7389 46.7315 22.2998 45.6462 21.8332C44.5609 21.3529 43.613 20.8451 42.8711 20.3511C42.4865 20.1178 42.1568 19.8845 41.8683 19.6786C41.5798 19.4728 41.3325 19.2807 41.1401 19.1297C40.7555 18.8141 40.5494 18.6357 40.5631 18.622C40.5769 18.6082 40.8104 18.7592 41.2088 19.0474C41.4149 19.1983 41.6622 19.3767 41.9507 19.5551C42.2529 19.7473 42.5826 19.9806 42.9673 20.2001C43.7229 20.6667 44.6708 21.147 45.7424 21.6136C46.8277 22.0665 48.0504 22.4919 49.3692 22.8213C50.6881 23.1369 51.9657 23.3153 53.1335 23.4251C54.3012 23.5074 55.359 23.5074 56.252 23.4526C56.6916 23.4388 57.09 23.3839 57.4472 23.3565C57.8044 23.329 58.1066 23.2879 58.3539 23.2467C58.8485 23.1781 59.1233 23.1369 59.1233 23.1644L59.1095 23.1506Z" fill="#42616A"/>
<path d="M59.5708 26.3349C59.5708 26.3486 59.3922 26.3897 59.0487 26.4584C58.719 26.527 58.2244 26.5956 57.62 26.6368C56.411 26.7328 54.7075 26.7054 52.8666 26.3486C51.0394 25.9918 49.4458 25.3605 48.3605 24.8116C47.811 24.5371 47.3851 24.2901 47.1103 24.098C46.8218 23.9058 46.6707 23.8098 46.6845 23.7823C46.7119 23.7412 47.3576 24.1254 48.4567 24.6332C49.5557 25.1409 51.1219 25.7173 52.9353 26.0741C54.7487 26.4309 56.4247 26.4858 57.62 26.4309C58.8289 26.376 59.5708 26.2662 59.5845 26.3074L59.5708 26.3349Z" fill="#42616A"/>
<path d="M60.6949 26.4453C60.7086 26.4453 60.7773 26.6786 60.846 27.1178C60.9147 27.5569 60.9834 28.1882 61.0246 28.9704C61.0658 29.7526 61.0795 30.6995 61.0246 31.7425C60.9696 32.7855 60.8597 33.9245 60.5712 35.1047C59.953 37.4788 58.4418 39.2491 57.123 40.1274C56.4635 40.5803 55.8865 40.841 55.4744 41.0194C55.0622 41.1841 54.8287 41.2527 54.8287 41.239C54.815 41.2116 55.0485 41.1155 55.4332 40.9234C55.8178 40.7313 56.3811 40.4431 57.0131 39.9765C57.645 39.5236 58.3182 38.8786 58.9089 38.0415C59.4722 37.1906 60.0629 36.2026 60.3102 35.0498C60.5987 33.8971 60.7086 32.7717 60.7773 31.7425C60.846 30.7133 60.846 29.7801 60.8322 28.9978C60.8185 28.2156 60.7773 27.5843 60.7361 27.1452C60.6948 26.7061 60.6674 26.4728 60.6949 26.459V26.4453Z" fill="#42616A"/>
<path d="M42.975 40.8258C42.975 40.7846 43.291 40.8944 43.6619 40.6611C43.8405 40.5513 44.0191 40.3455 44.0603 40.071C44.1016 39.7965 44.0329 39.4809 43.8268 39.2339C43.6207 39.0006 43.3047 38.8771 43.03 38.8496C42.7415 38.8222 42.4942 38.9045 42.2881 39.0143C41.8897 39.2202 41.7249 39.4809 41.6837 39.4535C41.6562 39.4397 41.7661 39.1378 42.1782 38.8496C42.3843 38.7124 42.6865 38.5889 43.03 38.6026C43.3734 38.6163 43.7581 38.7536 44.0329 39.0555C44.3076 39.3711 44.3901 39.7828 44.3076 40.1259C44.2389 40.4827 43.9917 40.7297 43.7581 40.8395C43.2635 41.0728 42.9476 40.8532 42.975 40.8395V40.8258Z" fill="#2C3C43"/>
<path d="M70.3828 77.371L72.7732 72.2796C73.1716 70.6877 74.7927 70.1525 76.771 70.0153L78.8729 69.1644C78.8729 69.1644 80.3979 66.9687 81.8129 66.9962C82.0464 66.9962 82.2388 67.1471 82.3074 67.3667C82.3487 67.5176 82.3349 67.6686 82.2525 67.8058L80.5352 70.4544L79.1614 71.1269C79.1614 71.1269 80.4391 71.4425 80.9474 70.9622C81.4557 70.4819 83.1867 69.1233 83.1867 69.1233C83.1867 69.1233 84.4918 66.7629 86.2091 66.9413C86.4289 66.9687 86.5525 67.202 86.4563 67.3941L85.1512 69.9192C85.1512 69.9192 87.5279 66.3374 89.8084 67.6823L87.2944 70.4133C87.2944 70.4133 90.9487 68.341 92.4049 70.0702L83.1592 73.8853L77.8288 74.9282L75.9605 79.9784L74.3256 79.0452L70.4103 77.371H70.3828Z" fill="#F9B39B"/>
<path d="M75.9231 83.9852C75.9231 83.9852 76.2116 93.0289 74.5356 95.5265C72.8595 98.0241 69.7547 101.4 65.9081 98.6966L63.5039 89.598C63.5039 89.598 67.4193 85.3026 68.1336 83.5461C69.9058 79.1683 72.7771 72.293 72.7771 72.293L77.8877 74.5573L75.9368 83.9852H75.9231Z" fill="#F9B39B"/>
<path d="M68.7075 82.7094C68.735 82.7368 68.5015 83.1623 68.1305 83.8484C67.7596 84.5346 67.2513 85.5089 66.7567 86.5931C66.2622 87.6909 65.85 88.6927 65.5753 89.4338C65.3005 90.1749 65.1219 90.6277 65.0944 90.614C65.0532 90.6003 65.1631 90.12 65.3967 89.3652C65.6302 88.6104 66.0011 87.5812 66.5095 86.4696C67.0178 85.3717 67.5536 84.4111 67.9657 83.7386C68.3916 83.0662 68.6801 82.6819 68.7075 82.6957V82.7094Z" fill="#F69775"/>
<path d="M80.5253 70.4403C80.5528 70.5089 80.0032 70.8383 79.2751 71.1814C78.5607 71.5107 77.9425 71.7303 77.915 71.6617C77.8876 71.5931 78.4371 71.2637 79.1652 70.9206C79.8796 70.5913 80.4978 70.3717 80.5253 70.4403Z" fill="#F69775"/>
<path d="M81.2931 72.8287C81.2794 72.7875 81.5266 72.6366 81.9663 72.4444C82.2273 72.3346 82.4746 72.2386 82.7356 72.1288C82.8867 72.0602 83.0378 72.0053 83.1752 71.9367C83.3401 71.868 83.4225 71.7994 83.5461 71.6622C84.0132 71.1407 84.3979 70.5918 84.7001 70.235C85.0024 69.8644 85.2222 69.6449 85.2634 69.6998C85.2634 69.7135 85.2359 69.7547 85.1672 69.8782C85.0711 70.0428 84.9612 70.1938 84.865 70.3448C84.604 70.7427 84.2468 71.2917 83.7522 71.8543C83.6835 71.9229 83.6286 71.9916 83.5324 72.0602C83.4225 72.1425 83.3675 72.1562 83.2714 72.1974C83.1065 72.266 82.9554 72.3209 82.8043 72.3758C82.502 72.4856 82.241 72.5679 82.0075 72.6366C81.5541 72.7738 81.2794 72.8698 81.2656 72.8287H81.2931Z" fill="#F69775"/>
<path d="M9.42667 26.9376L9.41293 27.0199C9.42667 26.9925 9.42667 26.965 9.42667 26.9376ZM16.7765 13.1868L16.7353 13.1457C16.5979 13.0633 16.5155 13.0222 16.7765 13.1868ZM11.6797 29.792C10.8142 30.0116 9.93498 29.7509 9.31676 29.1196C8.69855 28.4883 8.47874 27.5963 8.71229 26.7317L12.5864 13.1182C12.8337 12.2674 13.4931 11.6224 14.3449 11.4028H14.3586C15.2241 11.1832 16.1034 11.444 16.7216 12.0753L26.5855 22.2305C27.2037 22.8618 27.4235 23.7538 27.19 24.6183C26.9427 25.4692 26.2833 26.1142 25.4315 26.3338L11.6934 29.792H11.6797Z" fill="#ED1C24"/>
<path d="M14.3042 16.2727L15.9116 21.1994C16.049 21.5973 16.4611 21.8444 16.8732 21.762C17.3129 21.6797 17.6014 21.268 17.5464 20.8151L16.8046 15.6414C16.7496 15.2434 16.3649 14.9964 15.9803 15.1062L14.7576 15.4356C14.4004 15.5316 14.1806 15.9159 14.3042 16.2727Z" fill="#E0FBFF"/>
<path d="M18.9324 24.2476C18.8912 24.9474 18.2867 25.4689 17.5861 25.4278C16.8855 25.3866 16.3634 24.7828 16.4046 24.0829C16.4458 23.383 17.0503 22.8615 17.751 22.9027C18.4516 22.9438 18.9736 23.5477 18.9187 24.2476H18.9324Z" fill="#E0FBFF"/>
<path d="M12.8489 51.078C13.1236 51.5721 12.945 52.1759 12.4642 52.4503C11.9696 52.7248 11.3652 52.5464 11.0904 52.0661C10.8156 51.5721 10.9942 50.9682 11.4751 50.6938C11.9696 50.4193 12.5741 50.5977 12.8489 51.078Z" fill="#238F9D"/>
<path d="M9.5561 51.4322C9.9545 49.8677 11.5069 48.9483 13.0593 49.3874C13.7599 49.5932 14.0759 48.4954 13.3753 48.2895C11.2321 47.6857 9.00657 48.9483 8.45705 51.1165C8.27846 51.8301 9.3775 52.1458 9.5561 51.4322Z" fill="#238F9D"/>
<path d="M4.25021 49.0184C4.93711 47.1109 6.13232 45.4778 7.91827 44.4623C9.69048 43.4605 11.8061 43.1037 13.7982 43.584C14.5125 43.7624 14.8285 42.6645 14.1141 42.4861C11.8336 41.9234 9.41572 42.3077 7.36875 43.4605C5.30804 44.6269 3.94797 46.507 3.1649 48.7028C2.91761 49.3889 4.01666 49.7046 4.26394 49.0184H4.25021Z" fill="#238F9D"/>
<path d="M6.71166 50.6235C7.06885 49.1414 7.97556 47.824 9.29442 47.0418C10.6407 46.2458 12.2893 46.0537 13.7868 46.4928C14.4874 46.6987 14.8034 45.6008 14.1027 45.395C12.3305 44.8735 10.3385 45.0931 8.7449 46.04C7.17876 46.9731 6.0385 48.5376 5.62636 50.2942C5.4615 51.0078 6.54681 51.3234 6.7254 50.6098L6.71166 50.6235Z" fill="#238F9D"/>
<path d="M135.023 224.649C137.269 224.649 139.09 224.256 139.09 223.771C139.09 223.286 137.269 222.893 135.023 222.893C132.778 222.893 130.957 223.286 130.957 223.771C130.957 224.256 132.778 224.649 135.023 224.649Z" fill="#D2D3D5"/>
</g>
<path fill-rule="evenodd" clip-rule="evenodd" d="M152.451 47.5006C154.175 48.8667 152.652 51.7539 153.133 53.8997C153.668 56.2818 156.641 58.5699 155.407 60.674C154.146 62.8224 150.683 61.5526 148.273 62.184C146.563 62.6321 145.105 63.502 143.367 63.8281C140.659 64.3364 137.471 66.3623 135.341 64.611C133.271 62.9094 135.101 59.4537 134.808 56.7916C134.537 54.3198 132.802 51.9207 133.691 49.6C134.604 47.2177 136.873 45.1038 139.406 44.7966C141.863 44.4986 143.42 47.6235 145.845 48.1262C148.066 48.5865 150.673 46.0918 152.451 47.5006Z" fill="#FEDFD1"/>
<circle cx="148.637" cy="45.0139" r="0.594" fill="#CB142B"/>
<circle cx="132.641" cy="56.5973" r="0.858" fill="#CB142B"/>
<circle cx="153.832" cy="60.0934" r="0.528" fill="#CB142B"/>
<circle cx="144.167" cy="54.8352" r="7.06763" fill="#ED1C24"/>
<circle cx="144.217" cy="54.7825" r="7.90501" stroke="#CB142B" stroke-width="0.132"/>
<path d="M145.091 54.7583C145.091 54.7579 145.091 54.7574 145.091 54.7569C145.091 54.7564 145.091 54.7559 145.091 54.7555L147.095 52.7505C147.209 52.6369 147.275 52.4841 147.28 52.3233C147.285 52.1625 147.228 52.006 147.122 51.8856C146.879 51.6121 146.453 51.6086 146.195 51.867L144.2 53.8635C144.199 53.8639 144.199 53.8641 144.198 53.8641C144.198 53.8641 144.197 53.8639 144.197 53.8635L142.202 51.8673C141.944 51.6089 141.517 51.6121 141.275 51.8859C141.168 52.0062 141.112 52.1627 141.117 52.3234C141.121 52.4841 141.187 52.6369 141.301 52.7505L143.305 54.7555C143.306 54.7557 143.306 54.7559 143.306 54.7561C143.306 54.7564 143.306 54.7566 143.306 54.7569C143.306 54.7572 143.306 54.7575 143.306 54.7577C143.306 54.7579 143.306 54.7582 143.305 54.7583L141.301 56.7639C141.243 56.8225 141.196 56.892 141.164 56.9685C141.133 57.0451 141.116 57.1271 141.116 57.21C141.116 57.2928 141.133 57.3749 141.164 57.4514C141.196 57.528 141.242 57.5975 141.301 57.6561C141.419 57.7745 141.58 57.841 141.747 57.841C141.83 57.841 141.912 57.8247 141.988 57.793C142.065 57.7613 142.134 57.7149 142.193 57.6563L144.196 55.6503C144.197 55.65 144.197 55.6498 144.198 55.6498C144.198 55.6498 144.199 55.65 144.199 55.6503L146.204 57.6563C146.322 57.7746 146.483 57.841 146.65 57.841C146.817 57.841 146.977 57.7746 147.095 57.6563C147.214 57.538 147.28 57.3776 147.28 57.2103C147.28 57.043 147.214 56.8826 147.095 56.7643L145.091 54.7583Z" fill="#FEDFD1" stroke="#89082F" stroke-width="0.27324" stroke-miterlimit="10"/>
</g>
<defs>
<clipPath id="clip0_387_64">
<rect width="242" height="229" fill="white"/>
</clipPath>
</defs>
</svg>
